<svg height="182" viewBox="0 0 182 182" width="182" xmlns="http://www.w3.org/2000/svg"><path d="m81 0c44.735065 0 81 36.2649353 81 81 0 44.735065-36.264935 81-81 81-44.7350647 0-81-36.264935-81-81 0-44.7350647 36.2649353-81 81-81zm4.9174383 34.0589664c-3.0472786-6.0670807-7.3111271-6.0590097-10.271791 0-8.4345238 17.2612843-22.9737903 46.5638645-43.6177994 87.9077406 21.6814168-8.689043 37.9939928-13.033565 48.937728-13.033565s27.2563111 4.344522 48.9377281 13.033565c-1.334704-2.670677-2.642108-5.286603-3.922213-7.847778l-1.899684-3.800698c-3.132015-6.266058-6.09341-12.1899199-8.884186-17.771586l-1.653991-3.3079362c-.726007-1.4519434-1.439881-2.8795529-2.141623-4.2828284l-1.558443-3.1163065c-.170886-.3416937-.341013-.6818664-.510382-1.0205184l-1.007113-2.0136611c-.998014-1.9954106-1.968729-3.9360699-2.912144-5.8219778l-.934316-1.8676575c-8.4811459-16.952898-14.6684029-29.3051622-18.5617707-37.0567927z" transform="translate(10 10)"/></svg>