<?xml version="1.0" encoding="UTF-8"?>
<svg width="328px" height="328px" viewBox="0 0 328 328" version="1.1" xmlns="http://www.w3.org/2000/svg" xmlns:xlink="http://www.w3.org/1999/xlink">
    <title>Group</title>
    <g id="Page-1" stroke="none" stroke-width="1" fill="none" fill-rule="evenodd">
        <g id="letterboxd-mask" transform="translate(-499.000000, -372.000000)" fill="#000000" fill-rule="nonzero">
            <path d="M250,0 C388.071187,0 500,111.928813 500,250 C500,388.071187 388.071187,500 250,500 C111.928813,500 0,388.071187 0,250 C0,111.928813 111.928813,0 250,0 Z M309.83157,213.536019 C316.332216,224.155893 320.078652,236.640924 320.078652,250 C320.078652,263.610714 316.189747,276.314145 309.460484,287.062804 C321.843634,306.843027 343.844277,320 368.921349,320 C407.624719,320 439,288.659932 439,250 C439,211.340068 407.624719,180 368.921349,180 C343.84343,180 321.842147,193.157862 309.46212,212.939201 Z M131.078652,180 C92.3752811,180 61,211.340068 61,250 C61,288.659932 92.3752811,320 131.078652,320 C156.156571,320 178.157853,306.842138 190.53788,287.060799 L190.538,287.061 L190.16843,286.463982 C183.790438,276.044482 180.063703,263.829545 179.925343,250.755234 L179.921348,250 C179.921348,236.389286 183.810253,223.685855 190.539516,212.937196 L190.539,212.937 L190.165143,212.345783 C177.841795,193.091621 156.344626,180.261177 131.830034,180.003941 Z M190.912247,287.652245 C203.361132,307.103979 225.17286,320 250,320 C274.82714,320 296.638868,307.103979 309.084948,287.652245 L309.459,287.061 L309.089778,286.463982 C302.589132,275.844107 298.842697,263.359076 298.842697,250 C298.842697,236.388866 302.731841,223.685071 309.460674,212.936892 L309.461,212.937 L309.087753,212.347755 C296.764614,193.092503 275.266825,180.261195 250.751408,180.003941 L250,180 C225.17286,180 203.361132,192.896021 190.915052,212.347755 L190.54,212.938 L190.910222,213.536019 C197.410868,224.155893 201.157303,236.640924 201.157303,250 C201.157303,263.611134 197.268159,276.314929 190.539326,287.063108 Z" id="Combined-Shape"></path>
        </g>
        <g id="Group" fill="#2D8EFF" fill-rule="nonzero">
            <path d="M117.465463,202.126307 L148.032829,202.126307 C156.773869,202.113411 165.403057,200.153936 173.297693,196.389281 C180.777839,192.696923 187.456147,187.556651 192.948142,181.264393 C198.406062,174.749923 202.634054,167.291468 205.424618,159.255074 C208.459931,151.1155 210.009558,142.4941 209.999667,133.803539 C210.027047,125.352635 208.36542,116.981948 205.112706,109.18648 C201.94208,101.300828 197.479081,94.0027761 191.908436,87.5943995 C186.286789,81.1580157 179.471605,75.8794003 171.842104,72.0522736 C164.00154,67.9972411 155.293951,65.9206569 146.473269,66.0023186 L66,66.0023186 L66,262 L117.985316,262 L117.465463,202.126307 Z M117.465463,113.358863 L143.458121,113.358863 C147.088161,113.590964 150.483781,115.238154 152.919449,117.948484 C156.641898,122.625976 158.395437,128.577497 157.806068,134.533706 C158.434928,140.233845 156.831924,145.956152 153.335331,150.49307 C151.245151,153.244876 148.046747,154.925692 144.601798,155.082691 L117.465463,155.082691 L117.465463,113.358863 Z" id="Shape"></path>
            <path d="M0,18.8469841 L0,309.153016 C0,319.561918 8.43808221,328 18.8469841,328 L309.153016,328 C319.561918,328 328,319.561918 328,309.153016 L328,18.8469841 C328,13.8484532 326.014341,9.05464899 322.479846,5.52015385 C318.945351,1.9856587 314.151547,0 309.153016,0 L18.8469841,0 C8.43808221,0 0,8.43808221 0,18.8469841 Z M270.730159,289.577143 L57.0615873,289.577143 C46.6526854,289.577143 38.2146032,281.139061 38.2146032,270.730159 L38.2146032,57.0615873 C38.2146032,46.6526854 46.6526854,38.2146032 57.0615873,38.2146032 L270.730159,38.2146032 C281.139061,38.2146032 289.577143,46.6526854 289.577143,57.0615873 L289.577143,270.730159 C289.46302,281.057641 281.058272,289.369519 270.730159,289.368889 L270.730159,289.577143 Z" id="Shape"></path>
            <rect id="Rectangle" x="141" y="225" width="121" height="37"></rect>
        </g>
    </g>
</svg>