<?xml version="1.0" encoding="UTF-8" standalone="no"?> <!-- Created with Vectornator for iOS (http://vectornator.io/) --><!DOCTYPE svg PUBLIC "-//W3C//DTD SVG 1.1//EN" "http://www.w3.org/Graphics/SVG/1.1/DTD/svg11.dtd">
<svg style="fill-rule:evenodd;clip-rule:evenodd;stroke-linecap:round;stroke-linejoin:round;" xmlns:vectornator="http://vectornator.io" xmlns:xlink="http://www.w3.org/1999/xlink" xmlns="http://www.w3.org/2000/svg" xml:space="preserve" version="1.1" viewBox="0 0 256 256">
<metadata>
<vectornator:setting key="DimensionsVisible" value="1"/>
<vectornator:setting key="SnapToGrid" value="1"/>
<vectornator:setting key="SnapToPoints" value="1"/>
<vectornator:setting key="GuidesVisible" value="1"/>
<vectornator:setting key="RulersVisible" value="1"/>
<vectornator:setting key="CMYKEnabledKey" value="0"/>
<vectornator:setting key="SnapToEdges" value="1"/>
<vectornator:setting key="DisplayWhiteBackground" value="1"/>
<vectornator:setting key="SnapToGuides" value="1"/>
<vectornator:setting key="GridSpacing" value="10"/>
<vectornator:setting key="Units" value="Pixels"/>
<vectornator:setting key="DynamicGuides" value="1"/>
<vectornator:setting key="New" value="1"/>
</metadata>
<defs/>
<g id="Слой 1" vectornator:layerName="Слой 1">
<g opacity="1">
<path d="M95.6411+122.341L74.5155+122.341L81.7174+82.2848L62.4437+82.2848C59.9287+82.2848+57.8825+82.3991+56.3049+82.6278C54.7274+82.8564+53.3899+83.3937+52.2924+84.2396C51.195+85.0855+50.2347+86.3202+49.4116+87.9435C48.5886+89.5667+47.6969+91.7502+46.7367+94.4938L40.0149+113.356C39.4661+114.865+38.9746+116.111+38.5402+117.094C38.1058+118.077+37.7285+118.889+37.4084+119.529C37.0884+120.169+36.7797+120.695+36.4825+121.107C36.1853+121.518+35.8995+121.93+35.6251+122.341L12.3046+122.341L12.8533+119.255C13.6307+119.072+14.2823+118.82+14.8081+118.5C15.334+118.18+15.8141+117.689+16.2485+117.025C16.6829+116.362+17.1059+115.471+17.5174+114.35C17.929+113.23+18.432+111.778+19.0264+109.995L24.9937+92.1617C26.0454+89.0066+26.9828+86.4916+27.8059+84.6169C28.629+82.7421+29.5549+81.2331+30.5838+80.0899C31.6126+78.9468+32.8587+78.0665+34.3219+77.4492C35.7852+76.8319+37.6828+76.2489+40.0149+75.7002C37.5456+74.9686+35.4651+74.0083+33.7732+72.8194C32.0813+71.6305+30.6867+70.3388+29.5892+68.9441C28.4918+67.5494+27.6458+66.1319+27.0514+64.6915C26.457+63.2512+26.0111+61.8794+25.7139+60.5762C25.4167+59.273+25.2452+58.1184+25.1995+57.1124C25.1538+56.1064+25.1309+55.3748+25.1309+54.9175C25.1309+52.2654+25.3824+49.6475+25.8854+47.064C26.3884+44.4804+27.1657+42.0112+28.2174+39.6563C29.2691+37.3014+30.5838+35.1065+32.1613+33.0717C33.7389+31.0369+35.6023+29.2421+37.7514+27.6874C39.2604+26.59+40.8379+25.6526+42.4841+24.8752C44.1302+24.0979+46.005+23.4577+48.1084+22.9547C50.2119+22.4517+52.6239+22.0859+55.3447+21.8573C58.0654+21.6286+61.2319+21.5143+64.8443+21.5143L113.886+21.5143L95.6411+122.341ZM89.6052+38.8675L67.1078+38.8675C65.9189+38.8675+64.57+38.8904+63.061+38.9361C61.552+38.9818+60.0202+39.1533+58.4655+39.4505C56.9108+39.7477+55.3904+40.205+53.9043+40.8223C52.4182+41.4396+51.0921+42.3199+49.9261+43.463C48.76+44.6062+47.8227+46.0694+47.1139+47.8528C46.4051+49.6361+46.0508+51.8081+46.0508+54.3688C46.0508+57.2038+46.6452+59.3987+47.8341+60.9534C49.023+62.5081+50.4634+63.6398+52.1552+64.3486C53.8471+65.0574+55.6305+65.4689+57.5052+65.5832C59.38+65.6975+60.9804+65.7547+62.3065+65.7547L84.8039+65.7547L89.6052+38.8675Z" opacity="1" fill="#040000"/>
</g>
<g opacity="1">
<path d="M145.762+221.764L214.335+153.903L161.499+153.903L165.487+135.318L245.666+135.318L241.892+152.907L172.394+221.764L227.437+221.764L223.521+240.278L141.846+240.278L145.762+221.764Z" opacity="1" fill="#040000"/>
</g>
<g opacity="1">
<path d="M154.071+141.676L138.412+141.676C136.56+141.676+135.056+139.902+135.056+137.717C135.056+135.531+136.56+133.757+138.412+133.757L150.716+133.757L150.716+119.239C150.716+117.053+152.219+115.279+154.071+115.279C155.923+115.279+157.427+117.053+157.427+119.239L157.427+137.717C157.427+139.902+155.923+141.676+154.071+141.676Z" fill-opacity="0.979051" fill="#000000" opacity="1"/>
<path d="M101.476+173.393C99.6234+173.393+98.1201+171.62+98.1201+169.434L98.1201+150.956C98.1201+148.77+99.6234+146.997+101.476+146.997L117.135+146.997C118.987+146.997+120.49+148.77+120.49+150.956C120.49+153.142+118.987+154.916+117.135+154.916L104.831+154.916L104.831+169.434C104.831+171.62+103.328+173.393+101.476+173.393Z" fill-opacity="0.979051" fill="#000000" opacity="1"/>
<path d="M98.9104+143.313C98.6509+143.313+98.3959+143.281+98.1364+143.207C96.3333+142.706+95.2148+140.573+95.6354+138.445C98.9865+121.699+111.514+110+126.108+110C139.956+110+152.299+120.944+156.134+136.619C156.644+138.72+155.619+140.916+153.839+141.523C152.044+142.125+150.197+140.916+149.682+138.815C146.68+126.509+136.985+117.919+126.108+117.919C114.646+117.919+104.798+127.105+102.172+140.261C101.805+142.083+100.432+143.313+98.9104+143.313Z" fill-opacity="0.979051" fill="#000000" opacity="1"/>
<path d="M129.439+178.673C115.591+178.673+103.247+167.729+99.4131+152.054C98.9031+149.953+99.9277+147.757+101.708+147.15C103.493+146.527+105.346+147.757+105.86+149.858C108.867+162.164+118.562+170.754+129.439+170.754C140.901+170.754+150.749+161.568+153.375+148.411C153.809+146.279+155.643+144.98+157.41+145.466C159.214+145.967+160.332+148.1+159.911+150.228C156.56+166.974+144.033+178.673+129.439+178.673Z" fill-opacity="0.979051" fill="#000000" opacity="1"/>
</g>
</g>
</svg>
