<?xml version="1.0" encoding="UTF-8"?>
<svg width="256px" height="256px" viewBox="0 0 256 256" version="1.1" xmlns="http://www.w3.org/2000/svg" xmlns:xlink="http://www.w3.org/1999/xlink">
    <title>CommaList</title>
    <g id="CommaList" stroke="none" stroke-width="1" fill="none" fill-rule="evenodd">
        <rect id="Rectangle" fill="#000000" x="8" y="26" width="139" height="30"></rect>
        <rect id="Rectangle" fill="#000000" x="8" y="138.12" width="137.74" height="30"></rect>
        <rect id="Rectangle" fill="#000000" x="8" y="194.12" width="115" height="30"></rect>
        <rect id="Rectangle" fill="#000000" x="8" y="81.92" width="159.04" height="30"></rect>
        <g id="," transform="translate(162.000000, 26.000000)" fill="#000000" fill-rule="nonzero">
            <path d="M25,16.4719472 C25,20.1155116 24.1842369,23.5566557 22.5527108,26.7953795 C20.9211847,30.0341034 19.0512048,32.8173817 16.9427711,35.1452145 C14.7841365,37.5742574 12.5,39.7249725 10.0903614,41.5973597 C7.68072289,43.469747 5.47188755,44.9372937 3.46385542,46 L0,40.9141914 C2.40963855,39.3960396 4.56827309,37.8778878 6.47590361,36.359736 C8.38353414,34.8415842 9.93975904,33.3234323 11.1445783,31.8052805 C12.6506024,30.0341034 13.9307229,28.1111111 14.9849398,26.0363036 C16.0391566,23.9614961 16.7168675,21.6083608 17.0180723,18.9768977 L13.1777108,18.9768977 C9.81425703,18.9768977 7.19126506,18.0913091 5.30873494,16.320132 C3.42620482,14.5489549 2.48493976,12.1705171 2.48493976,9.18481848 C2.48493976,7.05940594 3.33835341,4.99724972 5.04518072,2.99834983 C6.75200803,0.999449945 9.08634538,0 12.0481928,0 C16.3654618,0 19.6034137,1.45489549 21.7620482,4.36468647 C23.9206827,7.27447745 25,11.310231 25,16.4719472 Z" id="Path"></path>
        </g>
        <g id="," transform="translate(184.000000, 82.000000)" fill="#000000" fill-rule="nonzero">
            <path d="M25,16.4719472 C25,20.1155116 24.1842369,23.5566557 22.5527108,26.7953795 C20.9211847,30.0341034 19.0512048,32.8173817 16.9427711,35.1452145 C14.7841365,37.5742574 12.5,39.7249725 10.0903614,41.5973597 C7.68072289,43.469747 5.47188755,44.9372937 3.46385542,46 L0,40.9141914 C2.40963855,39.3960396 4.56827309,37.8778878 6.47590361,36.359736 C8.38353414,34.8415842 9.93975904,33.3234323 11.1445783,31.8052805 C12.6506024,30.0341034 13.9307229,28.1111111 14.9849398,26.0363036 C16.0391566,23.9614961 16.7168675,21.6083608 17.0180723,18.9768977 L13.1777108,18.9768977 C9.81425703,18.9768977 7.19126506,18.0913091 5.30873494,16.320132 C3.42620482,14.5489549 2.48493976,12.1705171 2.48493976,9.18481848 C2.48493976,7.05940594 3.33835341,4.99724972 5.04518072,2.99834983 C6.75200803,0.999449945 9.08634538,0 12.0481928,0 C16.3654618,0 19.6034137,1.45489549 21.7620482,4.36468647 C23.9206827,7.27447745 25,11.310231 25,16.4719472 Z" id="Path"></path>
        </g>
        <g id="," transform="translate(162.000000, 138.000000)" fill="#000000" fill-rule="nonzero">
            <path d="M25,16.4719472 C25,20.1155116 24.1842369,23.5566557 22.5527108,26.7953795 C20.9211847,30.0341034 19.0512048,32.8173817 16.9427711,35.1452145 C14.7841365,37.5742574 12.5,39.7249725 10.0903614,41.5973597 C7.68072289,43.469747 5.47188755,44.9372937 3.46385542,46 L0,40.9141914 C2.40963855,39.3960396 4.56827309,37.8778878 6.47590361,36.359736 C8.38353414,34.8415842 9.93975904,33.3234323 11.1445783,31.8052805 C12.6506024,30.0341034 13.9307229,28.1111111 14.9849398,26.0363036 C16.0391566,23.9614961 16.7168675,21.6083608 17.0180723,18.9768977 L13.1777108,18.9768977 C9.81425703,18.9768977 7.19126506,18.0913091 5.30873494,16.320132 C3.42620482,14.5489549 2.48493976,12.1705171 2.48493976,9.18481848 C2.48493976,7.05940594 3.33835341,4.99724972 5.04518072,2.99834983 C6.75200803,0.999449945 9.08634538,0 12.0481928,0 C16.3654618,0 19.6034137,1.45489549 21.7620482,4.36468647 C23.9206827,7.27447745 25,11.310231 25,16.4719472 Z" id="Path"></path>
        </g>
    </g>
</svg>