<svg height="410" viewBox="0 0 410 410" width="410" xmlns="http://www.w3.org/2000/svg"><g fill="#000" fill-rule="evenodd"><path d="m336.366113 21.0021495 66.351407 17.7412797c5.250741 1.4362009 8.352861 6.8369679 6.942076 12.0861038-1.410784 5.2491359-6.80443 8.3745023-12.070167 6.9940998-25.935462-6.9046114-52.755763 8.4815263-59.70107 34.4096255l-25.890704 96.4702817c.019909.913091-.086617 1.844068-.332315 2.770367l-15.762832 58.754651c.184341 1.304491.108511 2.645352-.238119 3.94298-.348615 1.305055-.95638 2.511132-1.773551 3.553466l-5.461406 20.353912c-10.552797 39.747606-36.586422 73.629743-72.301231 94.098313-23.499136 13.62108-50.18349 20.804138-77.35455 20.822771-13.481993 0-27.049789-1.770497-40.4269165-5.341359-2.5401601-.680488-4.7055624-2.340789-6.0198152-4.615634s-1.6696924-4.977879-.9881215-7.514429l14.1085162-52.562712c-3.309896-.663242-6.6125161-1.436168-9.9041631-2.319707-39.8001742-10.560973-73.7256964-36.62336-94.21432389-72.377665-1.31542848-2.280326-1.6717641-4.990499-.99056575-7.533921.68119834-2.543422 2.34408982-4.711599 4.6226177-6.027243l77.72229454-44.93071c7.6207069-4.404518 15.4639003-8.086115 23.4497235-11.066195-1.855003-2.788894-3.629156-5.653313-5.318344-8.585945-20.6781309-35.899758-26.178378-77.7299537-15.4729111-117.7773421.6800964-2.5402847 2.339466-4.7057996 4.6130447-6.0201278 2.2735788-1.3143283 4.9751146-1.6697998 7.5102652-.9882102l86.5570502 23.2464053c.542056.1438368 1.083021.2905572 1.622876.4401467 35.435751-42.6143052 93.772022-63.27862254 150.721235-48.0232024zm-67.049073 251.7487365-56.032223 32.387062-.871604.502438c-22.990281 13.15315-48.975003 20.163167-75.454069 20.355585l-.999144.00303-1.524236-.006538c-2.545698-.025127-5.09344-.113114-7.641561-.264381l-1.528904-.098357-12.111259 45.119231.957047.180192c31.590395 5.831691 63.943589.314568 92.091558-15.89947 31.160801-17.845898 53.870838-47.405647 63.062133-82.082684zm-150.484846-77.443022-1.426572.465183c-8.469897 2.832987-16.780091 6.552434-24.8081854 11.191195l-68.8280079 39.796534h-.009548l.5484107.806195c18.1876867 26.529826 45.2820749 45.662722 76.3731146 53.906285l1.047757.277182c34.591102 9.006491 70.657626 4.103528 101.641391-13.819229l51.078327-29.507616-59.5787-15.994342-.932128-.253218c-29.479444-8.10451-55.347207-24.364673-75.105859-46.868169zm-16.580664-128.1620223c-13.1795891 68.9672783 29.004605 137.6768853 97.738308 156.1273343l76.650922 20.567329c6.128282-31.904569.666086-64.600176-15.72032-93.033912-17.834277-31.161698-47.373046-53.8754074-82.027483-63.0746819l-76.641427-20.5673296zm227.590238-27.446118c-46.084256-11.7728595-93.007834 3.4947009-123.654496 35.9367484l-.453162.4884031c30.267428 13.1233415 55.731138 35.7489018 72.343519 64.7651018 7.08884 12.231035 12.399813 25.263292 15.882665 38.714038l24.823849-92.4633339.166956-.6183193c4.754107-17.2825359 16.163959-31.9981165 31.752885-40.9234988l.361386-.2153765-19.827384-5.3187225z" fill-rule="nonzero"/><path d="m302.733504 79.9703759c-4.20591 5.0421907-10.77965 7.4488374-17.238929 6.3111725-6.459278-1.137665-11.819924-5.6463009-14.057719-11.8234135-2.237794-6.1771126-1.011775-13.0815243 3.215104-18.106078 6.51548-7.7450471 18.058567-8.7429355 25.801645-2.2305266 7.743079 6.5124089 8.763055 18.076612 2.279899 25.8488456"/></g></svg>