<svg height="64" viewBox="0 0 64 64" width="64" xmlns="http://www.w3.org/2000/svg"><g transform="translate(6 2)"><path d="m17 13.8364206v-7.88639457c-.0037702-.34822102.0815529-.69159906.2480201-.99681229.1662931-.30521323.4083323-.56197907.7020877-.74515263l6.7814498-3.943085c.3042032-.17364131.6475853-.26497611.9972362-.26497611.3494766 0 .6932071.0913348.9972361.26497611l24.3237169 14.15514679c.2944519.1824717.5370135.4390796.7034807.7444508.1664672.3053887.2514421.6491177.2467725.9975142v7.8768314c.0053661.349888-.0792605.6952138-.2457277 1.0021115-.1664672.3070732-.4092029.5653657-.7045255.7494341l-6.7718727 3.9429956c-.3055962.174593-.6508938.2665395-1.0021118.2665395-.3512179 0-.6963414-.0919465-1.0019376-.2665395l-24.3237169-14.1550574c-.2944519-.1824892-.5370135-.4390796-.7034807-.7444683-.1664672-.3053711-.251268-.6491001-.2466271-.9975142z"/><path d="m34.926179 45.2042746v8.9239386c.0040542.3434948-.078551.682315-.240045.9835654-.161494.3010773-.3961333.5543701-.6812818.7351204l-6.5695633 3.8906322c-.2964665.1720937-.6314483.2624688-.9721737.2624688s-.6755383-.0903751-.9720048-.2624688l-6.5695633-3.8906322c-.2851484-.1807503-.5197878-.4340431-.6812818-.7351204-.1613251-.3012504-.2440992-.6400706-.240045-.9835654v-27.9241853c-.0050678-.3436679.0773685-.6828343.2388625-.9840848.161494-.3014236.3968091-.5543701.6824643-.7344278l7.5647111-4.4855153 8.5137418.0153742v5.0272813z"/><path d="m17 23.9744439v-7.9608794c.0010778-.3577109-.0886456-.7093818-.260132-1.0185064-.1714189-.3091069-.4182426-.5645084-.7150719-.7399187l-6.55893227-3.9803423c-.29305146-.1799979-.62634354-.2747971-.96582518-.2747971-.33948163 0-.67289176.0947992-.96594323.2747971l-6.55892051 3.9803423c-.29683435.1754103-.54366477.4308118-.715082.7399187-.17141588.3091246-.26125868.6607955-.26009291 1.0185064v7.9801864c.00073475.3574452.09134023.7081596.26256368 1.0168945.17122328.3087349.41704684.5646856.71261123.7416369l6.55892051 3.9802537c.29455248.1753572.62738919.267464.96594323.267464.33855405 0 .6712727-.0921068.96582518-.267464l6.55893227-3.9802537c.2982798-.1785455.5458118-.4373302.7172138-.7497848.1713683-.3124546.2604171-.66742.2579901-1.0280536z"/></g></svg>