<?xml version="1.0" encoding="UTF-8"?>
<svg width="251px" height="251px" viewBox="0 0 251 251" version="1.1" xmlns="http://www.w3.org/2000/svg" xmlns:xlink="http://www.w3.org/1999/xlink">
    <title>select-all</title>
    <g id="Select-All" stroke="none" stroke-width="1" fill="none" fill-rule="evenodd">
        <path d="M223,36 C227.418278,36 231,39.581722 231,44 L231,208 C231,212.418278 227.418278,216 223,216 L8,216 C3.581722,216 -1.23527384e-15,212.418278 0,208 L0,44 C-5.41083001e-16,39.581722 3.581722,36 8,36 L223,36 Z M74,58 C66.747541,58 62.2491803,61.4115254 59.5868852,68.7877966 L59.5868852,68.7877966 L19.2852459,178.509831 L19.1289206,178.944367 C18.3252822,181.236371 18,183.12 18,184.595254 C18,190.219661 22.1311475,194 28.2819672,194 C33.6065574,194 36.6360656,191.418305 38.5639344,185.425085 L38.5639344,185.425085 L48.5704918,156.842034 L99.2459016,156.842034 L109.344262,185.517288 L109.451522,185.854054 C111.297764,191.516646 114.315763,194 119.718033,194 C125.685246,194 130,190.035254 130,184.595254 C130,182.84339 129.632787,181.091525 128.714754,178.509831 L128.714754,178.509831 L88.3213115,68.6955932 L88.1773788,68.3176761 C85.4144442,61.2058494 81.0371962,58 74,58 Z M156,58 C150.166667,58 146,61.9486833 146,68.4686023 L146,68.4686023 L146,183.531398 L146.003461,183.855245 C146.139352,190.181843 150.263889,194 156,194 C161.833333,194 166,190.051317 166,183.531398 L166,183.531398 L166,68.4686023 L165.996539,68.1447554 C165.860648,61.8181574 161.736111,58 156,58 Z M197,58 C191.166667,58 187,61.9486833 187,68.4686023 L187,68.4686023 L187,183.531398 L187.003461,183.855245 C187.139352,190.181843 191.263889,194 197,194 C202.833333,194 207,190.051317 207,183.531398 L207,183.531398 L207,68.4686023 L206.996539,68.1447554 C206.860648,61.8181574 202.736111,58 197,58 Z M74.0918033,81.6040678 L94.0131148,139.968814 L53.8032787,139.968814 L73.5409836,81.6040678 L74.0918033,81.6040678 Z" id="Combined-Shape" fill-opacity="0.803949956" fill="#000000"></path>
        <rect id="Rectangle" fill="#000000" x="240" y="0" width="11" height="251" rx="5.5"></rect>
    </g>
</svg>