<svg xmlns="http://www.w3.org/2000/svg" height="24" width="24" viewBox="0 0 24 24"><title>24 celebration</title><g stroke-linecap="round" fill="#28AA4B" stroke-linejoin="round" class="nc-icon-wrapper"> <path d="M12 20V17.9642C12 13.7889 9.90665 9.60031 6.02718 8.07535C5.99726 8.06359 5.98424 8.02802 6 8V8" stroke="#28AA4B" stroke-width="2" fill="none"></path> <path d="M18.1355 8.05315V8.05315C18.0657 8.05316 17.9964 8.06583 17.9316 8.09169C16.464 8.67762 15.2539 9.64586 14.318 10.8501" stroke="#28AA4B" stroke-width="2" fill="none"></path> <path d="M4 9C5.10457 9 6 8.10457 6 7C6 5.89543 5.10457 5 4 5C2.89543 5 2 5.89543 2 7C2 8.10457 2.89543 9 4 9Z" stroke="#28AA4B" stroke-width="2" data-color="color-2" fill="none"></path> <path d="M20 9C21.1046 9 22 8.10457 22 7C22 5.89543 21.1046 5 20 5C18.8954 5 18 5.89543 18 7C18 8.10457 18.8954 9 20 9Z" stroke="#28AA4B" stroke-width="2" data-color="color-2" fill="none"></path> <path d="M12 0L13.0811 2.13965L15.5 2.483L13.75 4.14853L14.163 6.5L12 5.38965L9.83622 6.5L10.25 4.14853L8.5 2.483L10.9181 2.13965L12 0Z" fill="#28AA4B" data-stroke="none" stroke="none"></path> <path d="M19.5 14.5L20.5811 16.6396L23 16.983L21.25 18.6485L21.663 21L19.5 19.8896L17.3362 21L17.75 18.6485L16 16.983L18.4181 16.6396L19.5 14.5Z" fill="#28AA4B" data-stroke="none" stroke="none"></path> <path d="M4.5 14.5L5.58111 16.6396L8 16.983L6.25 18.6485L6.663 21L4.5 19.8896L2.33622 21L2.75 18.6485L1 16.983L3.41811 16.6396L4.5 14.5Z" fill="#28AA4B" data-stroke="none" stroke="none"></path> </g></svg>