<svg xmlns="http://www.w3.org/2000/svg" height="24" width="24" viewBox="0 0 24 24"><title>24 chat bot 2</title><g stroke-linecap="round" fill="#28AA4B" stroke-linejoin="round" class="nc-icon-wrapper"><path d="M14,2v6h0v2l3-2h5c.552,0,1-.448,1-1V2c0-.552-.448-1-1-1h-7c-.552,0-1,.448-1,1Z" fill="none" stroke="#28AA4B" stroke-width="2" data-cap="butt" data-color="color-2"></path><path d="M10,11H3c-1.105,0-2,.895-2,2v8c0,1.105,.895,2,2,2h14c1.105,0,2-.895,2-2V13" fill="none" stroke="#28AA4B" stroke-width="2"></path><line x1="6" y1="7" x2="6" y2="5" fill="none" stroke="#28AA4B" stroke-width="2"></line><circle cx="6" cy="4" r="1" fill="#28AA4B" stroke="#28AA4B" stroke-width="2"></circle><circle cx="6.5" cy="15.5" r="1.5" fill="#28AA4B" data-color="color-2" data-stroke="none" stroke="none"></circle><circle cx="13.5" cy="15.5" r="1.5" fill="#28AA4B" data-color="color-2" data-stroke="none" stroke="none"></circle></g></svg>