<svg xmlns="http://www.w3.org/2000/svg" height="32" width="32" viewBox="0 0 32 32"><title>32 language</title><g stroke-linecap="round" fill="#28AA4B" stroke-linejoin="round" class="nc-icon-wrapper"><path d="m17,8V3c0-1.105-.895-2-2-2H3c-1.105,0-2,.895-2,2v11c0,1.105.895,2,2,2h1v2.667l4-2.667h3" fill="none" stroke="#28AA4B" stroke-width="2" data-color="color-2"></path><path d="m15,25v-11c0-1.105.895-2,2-2h12c1.105,0,2,.895,2,2v11c0,1.105-.895,2-2,2h-1v2.667l-4-2.667h-7c-1.105,0-2-.895-2-2Z" fill="none" stroke="#28AA4B" stroke-width="2"></path><polyline points="20.1 23 20 23 22.5 16 23.5 16 26 23 25.9 23" fill="none" stroke="#28AA4B" stroke-width="2"></polyline><line x1="20.714" y1="21" x2="25.286" y2="21" fill="none" stroke="#28AA4B" stroke-width="2" data-cap="butt"></line><line x1="5" y1="6" x2="13" y2="6" fill="none" stroke="#28AA4B" stroke-width="2" data-color="color-2"></line><line x1="9" y1="4" x2="9" y2="6" fill="none" stroke="#28AA4B" stroke-width="2" data-color="color-2"></line><path d="m5,12c3.446-.251,5.53-2.304,6.75-6h-.75" fill="none" stroke="#28AA4B" stroke-width="2" data-color="color-2"></path><path d="m11.442,11.74c-2.535-.693-4.168-2.638-5.192-5.74h.75" fill="none" stroke="#28AA4B" stroke-width="2" data-color="color-2"></path></g></svg>