<svg height="233" viewBox="0 0 245 233" width="245" xmlns="http://www.w3.org/2000/svg"><g fill-rule="evenodd" transform="translate(19.283203 14.038689)"><path d="m103.131836 0c4.726237 0 9.117943 2.39907615 13.175118 7.19722844l89.956718 197.51603556h-21.806641l-49.197265-106.251953h-65.525391c-31.9166667 70.834635-47.875 106.251953-47.875 106.251953h-21.859375l90.0282897-197.34776207c4.0094605-4.91033462 8.3773093-7.36550193 13.1035463-7.36550193z"/><path d="m103.131836 146.267952c11.668567 0 17.194612 3.519479 22.091769 6.82779l.552005.373423.548409.370416c3.921629 2.641 7.703208 4.957667 14.289262 4.957667 6.349459 0 13.12914-1.614907 20.339044-4.844722l23.504706 50.760738h-162.597656s7.5841558-16.831987 22.7524674-50.49596c4.972819 3.619899 10.6293434 5.146671 16.9701889 4.579944 9.0093571-.80523 13.8693776-3.710911 18.9035377-6.521432l.6726329-.37398c5.2829874-2.922069 10.965552-5.633884 21.9736341-5.633884z" opacity=".563779"/></g></svg>