<?xml version="1.0" encoding="UTF-8"?>
<svg width="245px" height="233px" viewBox="0 0 245 233" version="1.1" xmlns="http://www.w3.org/2000/svg" xmlns:xlink="http://www.w3.org/1999/xlink">
    <title>agenda</title>
    <g id="agenda" stroke="none" stroke-width="1" fill="none" fill-rule="evenodd">
        <g id="Path-2" transform="translate(19.283203, 14.038689)" fill="#000000">
            <path d="M103.131836,0 C107.858073,0 112.249779,2.39907615 116.306954,7.19722844 L206.263672,204.713264 L184.457031,204.713264 L135.259766,98.461311 L69.734375,98.461311 C37.8177083,169.295946 21.859375,204.713264 21.859375,204.713264 L0,204.713264 L90.0282897,7.36550193 C94.0377502,2.45516731 98.405599,0 103.131836,0 Z" id="Combined-Shape"></path>
            <path d="M103.131836,146.267952 C114.800403,146.267952 120.326448,149.787431 125.223605,153.095742 L125.77561,153.469165 L126.324019,153.839581 C130.245648,156.480581 134.027227,158.797248 140.613281,158.797248 C146.96274,158.797248 153.742421,157.182341 160.952325,153.952526 L184.457031,204.713264 L21.859375,204.713264 C21.859375,204.713264 29.4435308,187.881277 44.6118424,154.217304 C49.5846614,157.837203 55.2411858,159.363975 61.5820313,158.797248 C70.5913884,157.992018 75.4514089,155.086337 80.485569,152.275816 L81.1582019,151.901836 C86.4411893,148.979767 92.1237539,146.267952 103.131836,146.267952 Z" id="Combined-Shape" opacity="0.563778832"></path>
        </g>
    </g>
</svg>