<svg height='100px' width='100px'  fill="#000000" xmlns="http://www.w3.org/2000/svg" xmlns:xlink="http://www.w3.org/1999/xlink" viewBox="0 0 54 60" version="1.1" x="0px" y="0px"><title>Group 31</title><desc>Created with Sketch.</desc><g stroke="none" stroke-width="1" fill="none" fill-rule="evenodd"><g transform="translate(-1084.000000, -633.000000)" fill="#000000"><g transform="translate(1084.000000, 632.000000)"><path d="M34.6709,2.9771 C27.9639,2.9771 23.3519,4.8461 21.2909,8.4161 L21.0309,8.8671 C20.5039,9.7851 19.9589,10.7341 19.3329,11.6351 L12.1359,24.1601 C9.9629,27.9391 7.8729,31.1001 5.7489,33.8211 C3.8119,36.3041 1.6569,40.3321 2.3979,45.4211 C3.1289,50.4341 7.3249,54.1811 12.6039,54.5341 C15.9849,54.7571 19.5779,52.2821 21.7159,48.2161 C22.8459,46.0661 24.2049,44.1281 25.3849,42.5171 L31.7709,33.7951 L41.6379,22.7651 C43.5269,20.6541 44.6589,18.0341 44.8249,15.3871 C44.9219,13.8471 44.7939,12.2281 44.4429,10.5771 C43.8979,7.9981 42.2369,5.7181 39.8899,4.3211 C38.4639,3.4731 37.1799,3.0401 35.9659,2.9991 C35.5259,2.9841 35.0939,2.9771 34.6709,2.9771 M13.0289,56.5481 C12.8429,56.5481 12.6559,56.5421 12.4709,56.5291 C6.2419,56.1131 1.2869,51.6641 0.4189,45.7091 C-0.4241,39.9221 1.9949,35.3811 4.1729,32.5901 C6.2379,29.9441 8.2759,26.8601 10.4009,23.1631 L17.6449,10.5661 C18.2669,9.6641 18.7679,8.7931 19.2969,7.8711 L19.5589,7.4161 C22.1429,2.9411 27.8439,0.7201 36.0339,1.0001 C37.5939,1.0541 39.1889,1.5781 40.9109,2.6021 C43.7379,4.2831 45.7389,7.0391 46.3999,10.1631 C46.7879,11.9911 46.9299,13.7911 46.8209,15.5131 C46.6269,18.6051 45.3159,21.6551 43.1279,24.0991 L33.3219,35.0531 L26.9979,43.6981 C25.8609,45.2501 24.5559,47.1121 23.4849,49.1471 C21.0919,53.7001 17.0369,56.5481 13.0289,56.5481"></path><path d="M12.5967,57.3057 C13.6577,58.0797 14.7567,58.5647 15.8657,58.7477 C18.5057,59.1867 21.3307,58.6437 24.2647,57.1397 C27.9177,55.2687 30.9547,52.2317 33.0497,48.3577 L37.4927,40.1407 C38.2797,38.6877 39.4167,37.4197 40.8737,36.3717 C46.5897,32.2597 50.6047,21.1737 50.6447,21.0617 C50.6477,21.0537 50.6507,21.0447 50.6547,21.0357 C52.6107,16.0137 49.0307,11.4787 45.9857,8.7317 L45.9937,8.7567 C46.1757,9.2687 46.3087,9.7287 46.4007,10.1617 C46.6977,11.5677 46.8507,12.9627 46.8567,14.3067 C46.8587,14.7237 46.8457,15.1267 46.8217,15.5137 C46.7717,16.3027 46.6487,17.0977 46.4567,17.8767 C46.1757,19.0147 45.7437,20.1297 45.1747,21.1887 C44.8007,21.8827 44.3677,22.5527 43.8867,23.1817 C43.6467,23.4957 43.3937,23.8017 43.1277,24.0987 L33.3227,35.0537 L26.8957,43.8407 C25.8667,45.2517 24.5417,47.1387 23.4857,49.1467 C22.5617,50.9057 21.3967,52.4157 20.0237,53.6347 C20.0127,53.6447 19.9317,53.7127 19.9207,53.7217 C17.8797,55.4877 15.5267,56.4817 13.2657,56.5447 C13.0007,56.5537 12.7357,56.5477 12.4697,56.5297 C12.2357,56.5137 12.0017,56.4927 11.7687,56.4647 L12.5967,57.3057 Z M17.6667,60.8947 C16.9497,60.8947 16.2407,60.8367 15.5387,60.7217 C14.0927,60.4827 12.6817,59.8587 11.3437,58.8677 C11.3027,58.8367 11.2627,58.8027 11.2267,58.7647 L7.7987,55.2817 C7.4647,54.9417 7.4167,54.4127 7.6847,54.0187 C7.9517,53.6237 8.4617,53.4747 8.8997,53.6587 C10.0767,54.1547 11.3237,54.4487 12.6037,54.5347 C12.8047,54.5467 13.0057,54.5517 13.2077,54.5457 C15.0107,54.4947 16.9187,53.6737 18.5827,52.2337 C18.5907,52.2257 18.6527,52.1757 18.6597,52.1687 C19.8877,51.0807 20.9037,49.7607 21.7157,48.2167 C22.8317,46.0937 24.2107,44.1277 25.2867,42.6527 L26.1547,43.1597 L25.3817,42.5207 L31.7707,33.7957 L41.6377,22.7647 C41.8677,22.5077 42.0877,22.2427 42.2967,21.9687 C42.7147,21.4217 43.0907,20.8407 43.4137,20.2407 C43.9037,19.3297 44.2747,18.3727 44.5157,17.3977 C44.6787,16.7357 44.7837,16.0587 44.8257,15.3867 C44.8477,15.0427 44.8587,14.6857 44.8567,14.3157 C44.8517,13.1067 44.7127,11.8487 44.4437,10.5767 C44.3687,10.2247 44.2627,9.8587 44.1097,9.4247 L43.9987,9.1417 C43.8807,8.8397 43.7467,8.5427 43.5977,8.2527 C43.5957,8.2497 43.5497,8.1597 43.5477,8.1567 L43.4937,8.0527 C43.0957,7.3237 42.5947,6.6387 42.0087,6.0227 C41.6607,5.6577 41.6397,5.0917 41.9587,4.7007 L42.1197,4.5037 C42.4337,4.1197 42.9797,4.0227 43.4057,4.2767 C43.9337,4.5907 56.2797,12.0697 52.5227,21.7487 C52.2917,22.3907 48.2087,33.5577 42.0417,37.9947 C40.8317,38.8657 39.8937,39.9077 39.2527,41.0927 L34.8097,49.3087 C32.5217,53.5397 29.1907,56.8637 25.1767,58.9207 C22.6117,60.2337 20.0937,60.8947 17.6667,60.8947 L17.6667,60.8947 Z"></path><path d="M30,10 C28.897,10 28,10.897 28,12 C28,13.103 28.897,14 30,14 C31.103,14 32,13.103 32,12 C32,10.897 31.103,10 30,10 M30,16 C27.794,16 26,14.206 26,12 C26,9.794 27.794,8 30,8 C32.206,8 34,9.794 34,12 C34,14.206 32.206,16 30,16"></path><path d="M25,28 C23.897,28 23,28.897 23,30 C23,31.103 23.897,32 25,32 C26.103,32 27,31.103 27,30 C27,28.897 26.103,28 25,28 M25,34 C22.794,34 21,32.206 21,30 C21,27.794 22.794,26 25,26 C27.206,26 29,27.794 29,30 C29,32.206 27.206,34 25,34"></path><path d="M9,39 C7.897,39 7,39.897 7,41 C7,42.103 7.897,43 9,43 C10.103,43 11,42.103 11,41 C11,39.897 10.103,39 9,39 M9,45 C6.794,45 5,43.206 5,41 C5,38.794 6.794,37 9,37 C11.206,37 13,38.794 13,41 C13,43.206 11.206,45 9,45"></path><path d="M22,19 C22,19.552 21.552,20 21,20 C20.448,20 20,19.552 20,19 C20,18.448 20.448,18 21,18 C21.552,18 22,18.448 22,19"></path><path d="M20,40 C20,40.552 19.552,41 19,41 C18.448,41 18,40.552 18,40 C18,39.448 18.448,39 19,39 C19.552,39 20,39.448 20,40"></path><path d="M45,27 C45,27.552 44.552,28 44,28 C43.448,28 43,27.552 43,27 C43,26.448 43.448,26 44,26 C44.552,26 45,26.448 45,27"></path><path d="M33,43 C33,43.552 32.552,44 32,44 C31.448,44 31,43.552 31,43 C31,42.448 31.448,42 32,42 C32.552,42 33,42.448 33,43"></path></g></g></g></svg>