<?xml version="1.0" encoding="UTF-8"?>
<svg width="45px" height="42px" viewBox="0 0 45 42" version="1.1" xmlns="http://www.w3.org/2000/svg" xmlns:xlink="http://www.w3.org/1999/xlink">
    <title>Group</title>
    <g id="Logo" stroke="none" stroke-width="1" fill="none" fill-rule="evenodd">
        <g id="PengduLogo" transform="translate(-32, -33)" fill="#565656">
            <g id="book" transform="translate(32, 33)" fill-rule="nonzero">
                <g id="Group-3">
                    <path d="M11.6129032,0 C16.1491935,0 19.8457258,1.23825 21.7741935,3.195 L21.7741935,38.214 C21.7741935,38.86725 21.0251613,39.2085 20.561371,38.7645 C18.8433871,37.11975 15.476371,36 11.6129032,36 C6.00967742,36 1.4516129,38.35575 1.4516129,41.25 C1.4516129,41.66475 1.12717742,42 0.725806452,42 C0.324435484,42 0,41.66475 0,41.25 L0,6.47775 C0,2.724 4.88395161,0 11.6129032,0 Z M12.0412364,11.397184 C12.0581999,11.6516374 12.0751635,11.7873459 12.0751635,12.0248357 C12.0751635,12.2792892 12.0581999,12.4828519 12.0412364,12.8390867 L9.93775474,12.8390867 C9.31010297,12.8390867 8.78423256,12.8051596 8.37710709,12.7373053 L8.37710709,14.4336615 C8.73475551,14.3870117 9.00687931,14.3688701 9.71612895,14.3661705 L11.8207101,14.3658072 C11.7358923,14.7898963 11.7189287,14.8577505 11.6510745,15.1461311 L10.0734632,15.1461311 C9.44581146,15.1461311 9.08957667,15.1291675 8.69941475,15.0782768 L8.69941475,16.6728516 C9.08957667,16.6389245 9.39492078,16.6219609 10.0564997,16.6219609 L11.2269854,16.6219609 C11.0743134,17.0121228 10.9894956,17.1817584 10.8537871,17.470139 L9.53062927,17.470139 C8.71637832,17.470139 8.42799777,17.4531754 7.96998161,17.4022847 L7.96998161,18.6406247 C7.51196545,18.7932968 7.18965778,18.8950782 6.86735011,18.9968595 L6.86735011,16.231799 L7.24054847,16.231799 C7.59678326,16.231799 7.81730956,16.2487626 8.13961723,16.2826897 L8.13961723,14.5524064 C7.85123668,14.5863335 7.5798197,14.6032971 7.24054847,14.6032971 L6.86735011,14.6032971 L6.86735011,13.2462122 C6.86735011,12.4149977 6.88431368,11.9909086 6.96913148,11.5159289 L5.00135835,11.5159289 C5.08617616,11.9909086 5.10313972,12.4319612 5.10313972,13.2462122 L5.10313972,14.6032971 L4.52637863,14.6032971 C4.08532603,14.6032971 3.77998192,14.5863335 3.35589289,14.5184793 L3.35589289,16.3166168 C3.84783617,16.2487626 4.13621671,16.231799 4.50941507,16.231799 L5.10313972,16.231799 L5.10313972,19.4888028 C3.88176329,19.7771833 3.71212768,19.7941469 3.20322083,19.828074 L3.38982001,21.7788836 C3.50856494,21.7449565 4.15318028,21.5413937 5.10313972,21.2699768 L5.10313972,24.9510696 C5.10313972,25.3073044 5.01832191,25.3921222 4.66208712,25.3921222 C4.23799808,25.3921222 3.89872685,25.3581951 3.28803864,25.2733773 C3.5255285,25.9179926 3.59338275,26.291191 3.66123699,27.0036605 C4.1871074,27.0375877 4.47548794,27.0545512 4.88261342,27.0545512 C6.46022464,27.0545512 6.86735011,26.71528 6.86735011,25.4090858 L6.86735011,20.7101792 C7.32536627,20.5575072 7.49500189,20.4896529 8.12265366,20.2521631 L8.12265366,19.0138231 C8.36014352,18.9968595 8.63156051,18.979896 9.12350379,18.979896 L9.88686406,18.979896 C9.19135804,19.8111105 8.66548763,20.2351995 7.47803833,20.8967784 C7.93605449,21.3887217 8.19050791,21.7958472 8.46192489,22.4065354 C9.32706653,21.8128107 9.61544708,21.5753209 10.0734632,21.1681954 L10.0734632,22.2368998 C10.4805887,22.1860091 10.8537871,22.1690455 11.4475117,22.1690455 L12.3974712,22.1690455 L12.3974712,23.2207863 L10.2430989,23.2207863 C9.54759283,23.2207863 9.00475886,23.1868592 8.49585202,23.1359685 L8.49585202,24.8153611 C9.05564955,24.7644704 9.61544708,24.7305433 10.277026,24.7305433 L12.3974712,24.7305433 L12.3974712,25.5787214 C12.3974712,26.2572638 12.363544,26.71528 12.2956898,27.258114 L14.2295358,27.258114 C14.1616816,26.7322436 14.1277544,26.2742274 14.1277544,25.5617578 L14.1277544,24.7305433 L16.2990903,24.7305433 C17.1133413,24.7305433 17.588321,24.7475069 18.1141914,24.8153611 L18.1141914,23.1359685 C17.7286559,23.1976542 17.273023,23.2172815 16.5178833,23.2203403 L14.1277544,23.2207863 L14.1277544,22.1690455 L14.9759325,22.1690455 C15.6205478,22.1690455 16.0446369,22.1860091 16.4687259,22.2368998 L16.4687259,21.1681954 C16.9606692,21.5753209 17.3338676,21.8297743 18.1990092,22.3726083 C18.5043533,21.5583573 18.6909525,21.2360496 19.1489686,20.6932157 C17.8767015,20.1334181 17.2151226,19.6923655 16.5196166,18.979896 L17.1472684,18.979896 C17.8088473,18.979896 18.2668634,18.9968595 18.6570253,19.0477502 L18.6570253,17.4022847 C18.2869113,17.448549 17.8887583,17.4667743 17.1439419,17.4697057 L12.7197788,17.470139 C12.8045966,17.2496127 12.9233416,16.9442686 13.0251229,16.6219609 L16.3669445,16.6219609 C17.1811955,16.6219609 17.5035032,16.6389245 17.9106286,16.6898152 L17.9106286,15.0782768 C17.5035032,15.1291675 17.0794141,15.1461311 16.3839081,15.1461311 L13.4322484,15.1461311 C13.5170662,14.7898963 13.5340298,14.6711513 13.5849205,14.3658072 L16.5874708,14.3658072 C17.5035032,14.3658072 17.8936651,14.3827708 18.283827,14.4336615 L18.283827,12.7373053 C17.7749202,12.8051596 17.2829769,12.8390867 16.4347988,12.8390867 L13.7884832,12.8390867 C13.873301,12.1096536 13.9241917,11.8043094 14.0090095,11.4480747 L12.0412364,11.397184 Z M14.5009528,18.979896 C15.0607503,19.7771833 15.2643131,20.0146732 15.9258919,20.6762521 C15.665784,20.6875611 15.5790814,20.6913308 15.3843145,20.6925874 L14.1277544,20.6932157 C14.1277544,20.1503817 14.144718,19.7262927 14.2125722,19.4209486 L12.3296169,19.4209486 C12.3805076,19.7093291 12.3974712,20.0655639 12.3974712,20.6932157 L11.0455548,20.6923211 C10.8381488,20.6908302 10.6671879,20.6868543 10.5823701,20.6762521 C11.2100219,20.0316368 11.4475117,19.7262927 11.939455,18.979896 L14.5009528,18.979896 Z" id="Combined-Shape"></path>
                </g>
                <g id="Group-2" transform="translate(23.2258, 0)">
                    <path d="M10.1612903,0 C16.8902419,0 21.7741935,2.724 21.7741935,6.47775 L21.7741935,41.25 C21.7741935,41.66475 21.4497581,42 21.0483871,42 C20.6470161,42 20.3225806,41.66475 20.3225806,41.25 C20.3225806,38.35575 15.7645161,36 10.1612903,36 C6.29782258,36 2.93080645,37.11975 1.21282258,38.7645 C0.749032258,39.2085 0,38.86725 0,38.214 L0,3.195 C1.92846774,1.23825 5.625,0 10.1612903,0 Z M10.5543575,20.3878716 C10.6052482,20.6253614 10.6222117,20.8628513 10.6222117,21.1342683 C10.6222117,22.6779524 10.2320498,23.8314745 9.51958024,24.4930534 C9.12941832,24.8323247 8.48480299,25.2564137 7.97589614,25.4599764 L7.97589614,22.7118795 C7.97589614,21.9994099 7.97589614,21.7788836 8.02678683,21.4905031 C7.73840628,21.5244302 7.48395286,21.5413937 7.00897314,21.5413937 L4.19302193,21.5413937 C3.53144303,21.5413937 3.37877098,21.5413937 3.05646331,21.4905031 C3.107354,21.9485192 3.12431756,22.304754 3.12431756,22.8136609 L3.12431756,25.3921222 C3.12431756,25.901029 3.09039043,26.4947537 3.03949975,27.0545512 L4.70192878,27.0545512 L4.70192878,26.3251181 L7.0259367,26.3251181 C7.29735368,26.3251181 7.58573423,26.3420816 7.94196902,26.3590452 C8.14553176,26.6474258 8.24731313,26.8340249 8.45087587,27.258114 C9.74010654,26.6643893 10.5543575,26.0706647 11.1820093,25.2564137 C11.9453695,24.2894907 12.2337501,23.271677 12.352495,21.2360496 C12.3694586,20.913742 12.3694586,20.8967784 12.4033857,20.4387622 L10.5543575,20.3878716 Z M15.2193369,20.4217987 L13.3024545,20.4217987 C13.3703087,20.7610699 13.3872723,21.1003411 13.3872723,21.6262116 L13.3872723,25.5447943 C13.3872723,26.6643893 13.8452884,26.9358063 15.6943166,26.9358063 C16.9665837,26.9358063 17.4924541,26.7831342 17.8147618,26.3590452 C18.1031424,25.9349562 18.2218873,25.3073044 18.3575958,23.5261304 C17.8486889,23.4243491 17.4076363,23.2547135 16.7121303,22.9154422 C16.6951667,23.8993288 16.6442761,24.6287619 16.5764218,24.9001789 C16.5085676,25.1885595 16.3050048,25.2903408 15.7791344,25.2903408 C15.2363005,25.2903408 15.1175555,25.2224866 15.1175555,24.8832154 L15.1175555,21.6262116 C15.1175555,21.1173047 15.1514827,20.7780335 15.2193369,20.4217987 Z M6.43221205,23.00026 L6.43221205,24.8153611 L4.70192878,24.8153611 L4.70192878,23.00026 L6.43221205,23.00026 Z M18.1031424,18.0808272 C17.6960169,18.1260634 17.3291013,18.1444929 16.6926304,18.1480299 L9.7570701,18.1486814 C8.90889203,18.1317179 8.39998518,18.1147543 8.213386,18.0977908 C8.26427669,18.437062 8.28124025,18.7254425 8.28124025,19.3191672 L8.28124025,20.3200173 C8.28124025,20.794997 8.26427669,21.1512318 8.213386,21.5753209 L9.92670571,21.5753209 L9.92670571,19.7602198 L16.3050048,19.7602198 L16.3050048,21.5753209 L18.1201059,21.5753209 C18.0692152,21.2360496 18.0522517,20.8798148 18.0522517,20.370908 L18.0522517,19.2852401 C18.0522517,18.7424061 18.0692152,18.4200984 18.1031424,18.0808272 Z M7.94196902,19.0816773 C7.65358848,19.1156045 7.43306218,19.132568 6.89022821,19.132568 L4.20998549,19.132568 C3.66715152,19.132568 3.48055235,19.1156045 3.14128112,19.0816773 L3.14128112,20.6592885 L3.3655182,20.6370239 C3.55238243,20.6211205 3.74918625,20.6118436 4.03047655,20.609193 L6.87326465,20.6083979 C7.39913505,20.6083979 7.61966135,20.6253614 7.94196902,20.6592885 L7.94196902,19.0816773 Z M7.94196902,16.6898152 C7.65358848,16.7237423 7.43306218,16.7407058 6.89022821,16.7407058 L4.20998549,16.7407058 C3.66715152,16.7407058 3.48055235,16.7237423 3.14128112,16.6898152 L3.14128112,18.2674264 C3.44662523,18.2334993 3.68411509,18.2165357 4.20998549,18.2165357 L6.89022821,18.2165357 C7.39913505,18.2165357 7.61966135,18.2334993 7.94196902,18.2674264 L7.94196902,16.6898152 Z M14.014924,11.4311111 L12.0641145,11.4311111 C12.1319687,11.8043094 12.1658958,12.1944714 12.1658958,12.7033782 L12.1658958,12.9239045 L10.3168676,12.9239045 C9.46868955,12.9239045 9.04460052,12.9069409 8.53569367,12.8221231 L8.53569367,14.6032971 C8.94281915,14.5429822 9.34994462,14.5228772 9.95960897,14.5191541 L12.1658958,14.5184793 L12.1658958,15.7228922 L10.4865032,15.7228922 C9.77403366,15.7228922 9.34994462,15.7059286 8.8749649,15.6380743 L8.8749649,17.3344305 C9.31224782,17.2741156 9.65570758,17.2540106 10.2508517,17.2502875 L15.8639522,17.2496127 C16.5933854,17.2496127 17.0174744,17.2665762 17.4754906,17.3344305 L17.4754906,15.6380743 C17.0598833,15.6974468 16.6832392,15.7178561 16.1182731,15.7220307 L13.9131427,15.7228922 L13.9131427,14.5184793 L16.4576769,14.5184793 C17.2380007,14.5184793 17.6281626,14.5354428 18.1201059,14.6032971 L18.1201059,12.8221231 C17.6620898,12.8984592 17.2590355,12.9198333 16.5523166,12.9233447 L13.9131427,12.9239045 L13.9131427,12.7203418 C13.9131427,12.1944714 13.9470698,11.7873459 14.014924,11.4311111 Z M4.9563822,11.3123662 L3.70107865,12.4149977 C4.32873042,12.9408681 4.83763727,13.5006656 5.31261699,14.1792081 L3.93856851,14.1792081 C3.31091673,14.1792081 2.98860907,14.1622445 2.58148359,14.0943902 L2.58148359,15.8586006 C3.03949975,15.80771 3.34484386,15.7907464 3.93856851,15.7907464 L6.90719177,15.7907464 C7.61966135,15.7907464 7.84018765,15.80771 8.19642244,15.8586006 L8.19642244,14.1113538 C7.87976929,14.15659 7.57651945,14.1750195 7.04839189,14.1785565 L5.97419589,14.1792081 L6.92415533,13.3649571 C6.34739424,12.6015968 5.80456027,12.0417993 4.9563822,11.3123662 Z" id="Combined-Shape"></path>
                </g>
            </g>
        </g>
    </g>
</svg>