<?xml version="1.0" encoding="UTF-8"?>
<svg width="100px" height="100px" viewBox="0 0 100 100" version="1.1" xmlns="http://www.w3.org/2000/svg" xmlns:xlink="http://www.w3.org/1999/xlink">
    <title>notion-logo</title>
    <g id="notion-logo" stroke="none" stroke-width="1" fill="none" fill-rule="evenodd">
        <g transform="translate(2.000000, 0.000000)" fill="#000000" id="Shape">
            <path d="M61.35,0.228192657 L6.017,4.31519266 C1.553,4.70119266 0,7.61819266 0,11.1141927 L0,71.7741927 C0,74.4971927 0.967,76.8271927 3.3,79.9411927 L16.307,96.8541927 C18.444,99.5771927 20.387,100.161193 24.467,99.9671927 L88.724,96.0771927 C94.157,95.6901927 95.714,93.1601927 95.714,88.8841927 L95.714,20.6411927 C95.714,18.4311927 94.841,17.7941927 92.271,15.9081927 L74.167,3.14419266 C69.894,0.0371926567 68.147,-0.355807343 61.35,0.227192657 L61.35,0.228192657 Z M25.92,19.5241927 C20.673,19.8771927 19.483,19.9571927 16.503,17.5341927 L8.927,11.5081927 C8.157,10.7281927 8.544,9.75519266 10.484,9.56119266 L63.677,5.67419266 C68.144,5.28419266 70.47,6.84119266 72.217,8.20119266 L81.34,14.8111927 C81.73,15.0081927 82.7,16.1711927 81.533,16.1711927 L26.6,19.4781927 L25.92,19.5251927 L25.92,19.5241927 Z M19.803,88.3011927 L19.803,30.3681927 C19.803,27.8381927 20.58,26.6711927 22.906,26.4751927 L86,22.7811927 C88.14,22.5881927 89.107,23.9481927 89.107,26.4741927 L89.107,84.0211927 C89.107,86.5511927 88.717,88.6911927 85.224,88.8841927 L24.847,92.3841927 C21.354,92.5771927 19.804,91.4141927 19.804,88.3011927 L19.803,88.3011927 Z M79.403,33.4741927 C79.79,35.2241927 79.403,36.9741927 77.653,37.1741927 L74.743,37.7511927 L74.743,80.5241927 C72.216,81.8841927 69.89,82.6611927 67.946,82.6611927 C64.839,82.6611927 64.063,81.6881927 61.736,78.7741927 L42.706,48.8341927 L42.706,77.8011927 L48.726,79.1641927 C48.726,79.1641927 48.726,82.6641927 43.869,82.6641927 L30.479,83.4411927 C30.089,82.6611927 30.479,80.7181927 31.836,80.3311927 L35.333,79.3611927 L35.333,41.0611927 L30.48,40.6681927 C30.09,38.9181927 31.06,36.3911927 33.78,36.1951927 L48.147,35.2281927 L67.947,65.5551927 L67.947,38.7251927 L62.9,38.1451927 C62.51,36.0021927 64.063,34.4451927 66.003,34.2551927 L79.403,33.4751927 L79.403,33.4741927 Z"></path>
        </g>
    </g>
</svg>