<?xml version="1.0" encoding="UTF-8"?>
<svg width="474px" height="474px" viewBox="0 0 474 474" version="1.1" xmlns="http://www.w3.org/2000/svg" xmlns:xlink="http://www.w3.org/1999/xlink">
    <title>readwise-logo</title>
    <g id="Readwise" stroke="none" stroke-width="1" fill="none" fill-rule="evenodd">
        <g id="logo-standalone.b61f331edbe6">
            <path d="M464,10 L464,464 L10,464 L10,10 L464,10 Z" id="Path" stroke="#000000" stroke-width="20"></path>
            <path d="M232.395,97.426 C312.696,97.426 354.647,114.321 354.647,173.695 C354.647,218.622 332.808,240.077 288.793,247.469 L347.879,343.562 C358.295,360.889 366.79,366.649 384.166,368.713 L384.166,386.04 L298.441,386.04 L218.139,252.029 L198.076,252.029 L198.076,339.866 C198.076,363.385 203.884,366.649 228.603,368.713 L228.603,386.04 L99.199,386.04 L99.199,368.713 C123.918,366.649 129.726,363.337 129.726,339.866 L129.726,143.6 C129.726,119.697 124.686,116.817 99.199,114.753 L99.199,97.426 L232.395,97.426 Z M283.999,128.338 L197.025,224.383 C217.86372,207.07228 280.097601,206.44947 282.578621,206.431482 L282.655,206.431 C285.727,205.759 287.838,203.023 287.694,199.904 C287.694,199.904 277.183,140.865 283.999,128.338 L283.999,128.338 Z" id="Shape" fill="#000000" fill-rule="nonzero"></path>
        </g>
    </g>
</svg>