<?xml version="1.0" encoding="UTF-8"?>
<svg width="386px" height="386px" viewBox="0 0 386 386" version="1.1" xmlns="http://www.w3.org/2000/svg" xmlns:xlink="http://www.w3.org/1999/xlink">
    <title>raindropio-logo</title>
    <g id="Raindrop.io" stroke="none" stroke-width="1" fill="none" fill-rule="evenodd">
        <path d="M192.998,243.967128 L193,244 L193,335 C192.999002,334.999985 192.998004,334.99997 192.997006,334.999955 L192.998,243.967128 Z M66.082939,147.196277 C65.6972699,151.242862 65.5,155.344394 65.5,159.492 C65.5,185.296978 69.232874,198.618323 76.734375,213.849422 C77.4624767,215.327765 78.0945486,216.674101 78.7267189,217.989647 L78.7267189,217.989647 L79.0188469,218.595005 C80.9222747,222.520409 82.9596903,226.308849 87.7265625,232.693172 C91.2086689,237.356794 94.9705192,243.913184 103.763672,251.814266 C109.545598,257.009612 139.290244,284.911057 192.997608,335.518601 L192.43787,334.991527 C161.982847,334.535077 129.880281,334.480006 96.1301739,334.826313 C71.4538044,335.079515 47.9813991,324.439288 30.1301739,306.826313 C11.1330607,288.082743 -1.4272327,261.627039 0.130173875,238.326313 C2.641372,200.755686 19.0507251,164.135196 65.7133533,147.3283 Z" id="Combined-Shape" fill="#000000" opacity="0.43687221"></path>
        <path d="M193.001,250.951987 L193.001997,334.999969 C193.001331,334.99998 193.000666,334.99999 193,335 L193,251 L193.001,250.951987 Z M385.5,238.326313 C387.057407,261.627039 374.497113,288.082743 355.5,306.826313 C337.648775,324.439288 314.176369,335.079515 289.5,334.826313 C255.750912,334.480016 223.771032,334.535074 193.560358,334.991485 L194.606424,334.007187 C247.302253,284.355299 276.512221,256.957659 282.236328,251.814266 C291.029481,243.913184 294.791331,237.356794 298.273438,232.693172 C303.04031,226.308849 305.077725,222.520409 306.981153,218.595005 L306.981153,218.595005 L307.273281,217.989647 L307.544485,217.423661 C308.088003,216.286739 308.641538,215.116573 309.265625,213.849422 C316.767126,198.618323 320.5,185.296978 320.5,159.492 C320.5,155.390801 320.30712,151.334651 319.929936,147.332127 C366.582044,164.140988 382.989,200.758657 385.5,238.326313 Z" id="Combined-Shape" fill="#000000" opacity="0.715541295"></path>
        <path d="M193.56116,334.991473 L193.002392,335.518601 L193.001996,334.999969 C193.188317,334.997122 193.374705,334.99429 193.56116,334.991473 Z M192.997006,334.999955 L192.997608,335.518601 L192.43787,334.991527 C192.62431,334.994321 192.810689,334.99713 192.997006,334.999955 Z M193,31.496 L194.616714,31.5091483 C260.247406,32.57325 313.87053,83.0329168 319.929923,147.331987 C318.480495,146.81083 317.005027,146.308771 315.5,145.826313 C309.931925,144.041387 301.265258,142.87472 289.5,142.326313 C272.773018,143.831423 261.106351,145.831423 254.5,148.326313 C239.142994,154.12589 229.741464,162.611844 219.5,172.326313 C207.740709,183.480506 205.196357,187.469875 198,209.326313 C196.881927,212.722071 195.058465,218.983563 194,229.5 C193.608278,233.391971 193.274945,240.558638 193,251 L193.000731,250.944 L193,31.496 Z M192.999,31.496 L192.997731,243.966 L192.953967,243.368938 C192.204104,233.128607 191.552782,226.172295 191,222.5 C190.77582,221.010702 190.520339,219.644408 190.24876,218.389345 C189.373453,214.344236 188.330923,211.454596 187.630174,209.326313 C184.389787,199.484763 182.27637,195.352606 180,191 C177.220933,185.686196 174.029533,180.667569 166.130174,172.326313 C156.424767,162.077976 146.48718,154.12589 131.130174,148.326313 C121.220647,144.583978 107.760348,142.152625 96.1301739,142.326313 C84.5,142.5 78.4822869,143.148924 70.1301739,145.826313 C68.7561804,146.266766 67.4068229,146.723556 66.0817309,147.196255 C72.2044248,82.9624136 125.798459,32.5725063 191.383286,31.5091483 L192.999,31.496 Z" id="Combined-Shape" fill="#000000" opacity="0.707891555"></path>
        <path d="M96.1301739,142.326313 C107.760348,142.152625 121.220647,144.583978 131.130174,148.326313 C146.48718,154.12589 156.424767,162.077976 166.130174,172.326313 C174.029533,180.667569 177.220933,185.686196 180,191 C180.042155,191.080604 180.084254,191.161132 180.126306,191.241622 L180.378107,191.72441 C180.461894,191.885388 180.545556,192.046516 180.629158,192.208094 L180.87985,192.694484 C182.843231,196.519845 184.809838,200.760519 187.630174,209.326313 C187.660641,209.418847 187.691755,209.51282 187.723472,209.608265 L187.920695,210.198853 C188.600043,212.228073 189.487623,214.871859 190.24876,218.389345 C190.520339,219.644408 190.77582,221.010702 191,222.5 C191.564063,226.247239 192.23073,233.413906 193,244 L192.998,243.967579 L192.997006,334.999955 C192.811022,334.997135 192.624976,334.994331 192.438869,334.991542 L192.997608,335.518601 C139.290244,284.911057 109.545598,257.009612 103.763672,251.814266 C94.9705192,243.913184 91.2086689,237.356794 87.7265625,232.693172 C82.9596903,226.308849 80.9222747,222.520409 79.0188469,218.595005 L78.7267189,217.989647 C78.0945486,216.674101 77.4624767,215.327765 76.734375,213.849422 C69.232874,198.618323 65.5,185.296978 65.5,159.492 C65.5,155.344684 65.6972423,151.243437 66.0828579,147.197128 C67.4073271,146.723385 68.7564371,146.266684 70.1301739,145.826313 C78.4822869,143.148924 84.5,142.5 96.1301739,142.326313 Z" id="Combined-Shape" fill="#000000" opacity="0.623953683"></path>
        <path d="M289.5,142.326313 C301.265258,142.87472 309.931925,144.041387 315.5,145.826313 C317.005374,146.308882 318.481175,146.811061 319.92789,147.332288 C320.307083,151.333882 320.5,155.390412 320.5,159.492 C320.5,185.296978 316.767126,198.618323 309.265625,213.849422 C308.641538,215.116573 308.088003,216.286739 307.544485,217.423661 L307.273281,217.989647 L306.981153,218.595005 C305.077725,222.520409 303.04031,226.308849 298.273438,232.693172 C294.791331,237.356794 291.029481,243.913184 282.236328,251.814266 C276.512221,256.957659 247.302253,284.355299 194.606424,334.007187 L193.559555,334.991497 C193.373302,334.994311 193.187117,334.99714 193.000999,334.999985 L193.001999,250.941313 L193.01726,250.351679 C193.288859,240.261448 193.616439,233.310888 194,229.5 C195.058465,218.983563 196.881927,212.722071 198,209.326313 C205.196357,187.469875 207.740709,183.480506 219.5,172.326313 C229.741464,162.611844 239.142994,154.12589 254.5,148.326313 C261.106351,145.831423 272.773018,143.831423 289.5,142.326313 Z" id="Combined-Shape" fill="#000000" opacity="0.789899554"></path>
    </g>
</svg>