<svg viewBox="0 0 110.89 110.89" xmlns="http://www.w3.org/2000/svg"><g fill="#1b1b1b" fill-rule="evenodd"><path d="m59.62 107.6c0 1.82 1.47 3.29 3.29 3.29h44.79c1.82 0 3.3-1.48 3.18-3.29-1.63-26.06-21.91-46.54-47.97-48.16-1.81-.11-3.29 1.37-3.29 3.18z"/><path d="m51.65 62.72c0-1.82-1.47-3.29-3.29-3.29h-45.17c-1.82 0-3.3 1.48-3.18 3.29 1.63 26.06 22.29 46.54 48.35 48.16 1.81.11 3.29-1.37 3.29-3.18z"/><path d="m51.65 48.17c0 1.82-1.47 3.29-3.29 3.29h-45.17c-1.82 0-3.3-1.48-3.18-3.29 1.62-26.06 22.29-46.54 48.35-48.17 1.81-.11 3.29 1.37 3.29 3.18v44.98z"/><path d="m59.62 3.29c0-1.82 1.47-3.29 3.29-3.29h44.79c1.82 0 3.3 1.48 3.18 3.29-1.63 26.06-21.91 46.54-47.97 48.16-1.81.11-3.29-1.37-3.29-3.18z"/></g></svg>