<svg width="20" height="20" viewBox="0 0 21 20" fill="none" xmlns="http://www.w3.org/2000/svg">
<path d="M5.81592 15.4177C5.81592 15.5772 5.77604 15.7504 5.69629 15.9373C5.61882 16.1218 5.49577 16.3041 5.32715 16.4841C5.15853 16.6619 4.9432 16.8066 4.68115 16.9182C4.41911 17.0299 4.11377 17.0857 3.76514 17.0857C3.50081 17.0857 3.26042 17.0606 3.04395 17.0105C2.82747 16.9604 2.63037 16.8829 2.45264 16.7781C2.27718 16.671 2.1154 16.5308 1.96729 16.3577C1.83512 16.2004 1.72233 16.025 1.62891 15.8313C1.53548 15.6353 1.46484 15.4268 1.41699 15.2058C1.37142 14.9848 1.34863 14.7501 1.34863 14.5017C1.34863 14.0984 1.40674 13.7372 1.52295 13.4182C1.64144 13.0992 1.81006 12.8269 2.02881 12.6013C2.24756 12.3735 2.50391 12.2003 2.79785 12.0818C3.0918 11.9633 3.40511 11.9041 3.73779 11.9041C4.14339 11.9041 4.50456 11.9849 4.82129 12.1467C5.13802 12.3085 5.3807 12.509 5.54932 12.7483C5.71794 12.9853 5.80225 13.2097 5.80225 13.4216C5.80225 13.5378 5.76123 13.6404 5.6792 13.7292C5.59717 13.8181 5.49805 13.8625 5.38184 13.8625C5.25195 13.8625 5.15397 13.8318 5.08789 13.7703C5.02409 13.7087 4.95231 13.6028 4.87256 13.4524C4.7404 13.204 4.58431 13.0183 4.4043 12.8953C4.22656 12.7722 4.00667 12.7107 3.74463 12.7107C3.32764 12.7107 2.99495 12.8691 2.74658 13.1858C2.50049 13.5025 2.37744 13.9526 2.37744 14.5359C2.37744 14.9255 2.43213 15.2502 2.5415 15.51C2.65088 15.7675 2.80583 15.96 3.00635 16.0876C3.20687 16.2153 3.44157 16.2791 3.71045 16.2791C4.00212 16.2791 4.24821 16.2073 4.44873 16.0637C4.65153 15.9179 4.8042 15.7048 4.90674 15.4246C4.95003 15.2924 5.00358 15.1853 5.06738 15.1033C5.13118 15.019 5.23372 14.9768 5.375 14.9768C5.49577 14.9768 5.59945 15.019 5.68604 15.1033C5.77262 15.1876 5.81592 15.2924 5.81592 15.4177Z" fill="black"/>
<path d="M9.93457 16.4329L9.69531 15.804H7.6582L7.41895 16.4465C7.32552 16.6972 7.24577 16.8669 7.17969 16.9558C7.11361 17.0424 7.00537 17.0857 6.85498 17.0857C6.72738 17.0857 6.61458 17.039 6.5166 16.9456C6.41862 16.8521 6.36963 16.7462 6.36963 16.6277C6.36963 16.5593 6.38102 16.4887 6.40381 16.4158C6.4266 16.3429 6.46419 16.2415 6.5166 16.1116L7.79834 12.8577C7.8348 12.7642 7.87809 12.6526 7.92822 12.5227C7.98063 12.3905 8.03532 12.2812 8.09229 12.1946C8.15153 12.108 8.22786 12.0385 8.32129 11.9861C8.41699 11.9314 8.53434 11.9041 8.67334 11.9041C8.81462 11.9041 8.93197 11.9314 9.02539 11.9861C9.12109 12.0385 9.19743 12.1069 9.25439 12.1912C9.31364 12.2755 9.36263 12.3666 9.40137 12.4646C9.44238 12.5603 9.49365 12.689 9.55518 12.8508L10.8643 16.0842C10.9668 16.3303 11.0181 16.5092 11.0181 16.6208C11.0181 16.7371 10.9691 16.8442 10.8711 16.9421C10.7754 17.0378 10.6592 17.0857 10.5225 17.0857C10.4427 17.0857 10.3743 17.0709 10.3174 17.0413C10.2604 17.0139 10.2126 16.9763 10.1738 16.9285C10.1351 16.8783 10.0929 16.8031 10.0474 16.7029C10.0041 16.6003 9.96647 16.5103 9.93457 16.4329ZM7.9248 15.0417H9.42188L8.6665 12.9739L7.9248 15.0417Z" fill="black"/>
<path d="M15.5742 15.4963C15.5742 15.7994 15.4956 16.0717 15.3384 16.3132C15.1834 16.5548 14.9556 16.7439 14.6548 16.8806C14.354 17.0173 13.9974 17.0857 13.585 17.0857C13.0905 17.0857 12.6826 16.9923 12.3613 16.8054C12.1335 16.671 11.9478 16.4921 11.8042 16.2688C11.6629 16.0432 11.5923 15.8245 11.5923 15.6125C11.5923 15.4895 11.6344 15.3847 11.7188 15.2981C11.8053 15.2092 11.9147 15.1648 12.0469 15.1648C12.154 15.1648 12.244 15.199 12.3169 15.2673C12.3921 15.3357 12.4559 15.4371 12.5083 15.5715C12.5721 15.731 12.6405 15.8643 12.7134 15.9714C12.7886 16.0785 12.8934 16.1674 13.0278 16.238C13.1623 16.3064 13.3389 16.3406 13.5576 16.3406C13.8584 16.3406 14.1022 16.2711 14.2891 16.1321C14.4782 15.9908 14.5728 15.8153 14.5728 15.6057C14.5728 15.4394 14.5215 15.3049 14.4189 15.2024C14.3187 15.0976 14.1877 15.0178 14.0259 14.9631C13.8664 14.9084 13.6522 14.8503 13.3833 14.7888C13.0233 14.7045 12.7214 14.6065 12.4775 14.4949C12.236 14.3809 12.0435 14.2271 11.8999 14.0334C11.7586 13.8375 11.688 13.5948 11.688 13.3054C11.688 13.0297 11.7632 12.7847 11.9136 12.5706C12.064 12.3564 12.2816 12.1923 12.5664 12.0784C12.8512 11.9622 13.1862 11.9041 13.5713 11.9041C13.8789 11.9041 14.1444 11.9428 14.3677 12.0203C14.5933 12.0955 14.7801 12.1969 14.9282 12.3245C15.0763 12.4498 15.1846 12.5819 15.2529 12.7209C15.3213 12.8599 15.3555 12.9955 15.3555 13.1277C15.3555 13.2485 15.3122 13.3578 15.2256 13.4558C15.1413 13.5515 15.0353 13.5994 14.9077 13.5994C14.7915 13.5994 14.7026 13.5709 14.6411 13.5139C14.5819 13.4547 14.5169 13.359 14.4463 13.2268C14.3551 13.0377 14.2458 12.8907 14.1182 12.7859C13.9906 12.6788 13.7855 12.6252 13.5029 12.6252C13.2409 12.6252 13.029 12.6833 12.8672 12.7996C12.7077 12.9135 12.6279 13.0514 12.6279 13.2131C12.6279 13.3134 12.6553 13.4 12.71 13.4729C12.7646 13.5458 12.8398 13.6085 12.9355 13.6609C13.0312 13.7133 13.1281 13.7543 13.2261 13.7839C13.3241 13.8136 13.4858 13.8569 13.7114 13.9138C13.994 13.9799 14.2492 14.0528 14.4771 14.1326C14.7072 14.2123 14.902 14.3092 15.0615 14.4231C15.2233 14.537 15.3486 14.6817 15.4375 14.8572C15.5286 15.0304 15.5742 15.2434 15.5742 15.4963Z" fill="black"/>
<path d="M19.7373 12.7722H17.4507V14.0027H19.5562C19.7111 14.0027 19.8262 14.038 19.9014 14.1086C19.9788 14.177 20.0176 14.2681 20.0176 14.3821C20.0176 14.496 19.98 14.5894 19.9048 14.6624C19.8296 14.733 19.7134 14.7683 19.5562 14.7683H17.4507V16.1936H19.8159C19.9754 16.1936 20.0951 16.2312 20.1748 16.3064C20.2568 16.3793 20.2979 16.4773 20.2979 16.6003C20.2979 16.7188 20.2568 16.8157 20.1748 16.8909C20.0951 16.9638 19.9754 17.0002 19.8159 17.0002H17.0576C16.8366 17.0002 16.6771 16.9513 16.5791 16.8533C16.4834 16.7553 16.4355 16.5969 16.4355 16.3782V12.6116C16.4355 12.4657 16.4572 12.3472 16.5005 12.2561C16.5438 12.1627 16.611 12.0955 16.7021 12.0544C16.7956 12.0111 16.9141 11.9895 17.0576 11.9895H19.7373C19.8991 11.9895 20.0187 12.026 20.0962 12.0989C20.1759 12.1695 20.2158 12.2629 20.2158 12.3792C20.2158 12.4976 20.1759 12.5933 20.0962 12.6663C20.0187 12.7369 19.8991 12.7722 19.7373 12.7722Z" fill="black"/>
<path d="M18.8 7.99999C18.8 8.39015 18.789 8.83196 18.7495 9.22341C18.7298 9.41892 18.7021 9.61239 18.6618 9.78592C18.6238 9.94939 18.5649 10.1402 18.4611 10.2999C18.2955 10.5546 17.9548 10.6267 17.7002 10.4611C17.4455 10.2955 17.3735 9.95445 17.5391 9.6998C17.5415 9.69505 17.564 9.65017 17.5903 9.53712C17.6162 9.42555 17.638 9.28235 17.6551 9.11315C17.6891 8.77518 17.7 8.37541 17.7 8.00002C17.7 7.53866 17.6441 7.04056 17.586 6.64977C17.5571 6.45621 17.5283 6.29281 17.5069 6.17839C17.4961 6.12125 17.4873 6.0765 17.4812 6.04653L17.4743 6.01298L17.4726 6.00511L17.4723 6.0035L17.39 5.639L17.7106 5.42884L17.7122 5.42502L17.7218 5.41869L17.7605 5.39311C17.7943 5.37059 17.8436 5.33755 17.9042 5.29623C18.0256 5.21342 18.1913 5.09812 18.3688 4.9679C18.7435 4.69311 19.1056 4.39847 19.2606 4.20736L19.2763 4.18804C19.3721 4.07025 19.4899 3.92532 19.5513 3.77093C19.5809 3.69633 19.5818 3.65437 19.5798 3.63873C19.5795 3.6346 19.5783 3.61632 19.5383 3.57903C18.9396 3.02097 18.7943 3.04187 18.7718 3.0451L18.7701 3.04533C18.7158 3.05075 18.6605 3.07081 18.4711 3.13949L18.4526 3.14621C18.2688 3.21288 18.026 3.29547 17.7002 3.34467C17.4164 3.38751 17.2044 3.45145 17.0692 3.50136C17.0015 3.52632 16.953 3.54777 16.9244 3.56132C16.91 3.56809 16.9007 3.57287 16.8964 3.57512L16.8949 3.57588L16.5491 3.77417L16.2537 3.50205L16.2528 3.50125L16.2471 3.49616C16.241 3.49076 16.2308 3.48188 16.217 3.47025C16.1893 3.44688 16.1476 3.41297 16.0954 3.37407C15.9884 3.29436 15.8495 3.20285 15.7044 3.13571C15.5529 3.06556 15.4387 3.04263 15.367 3.04711C15.3244 3.04977 15.2869 3.05837 15.2344 3.13104C15.1354 3.2679 15.1348 3.48603 15.3427 3.83897C15.4351 3.99576 15.5463 4.13684 15.6375 4.241C15.6824 4.29221 15.7207 4.33246 15.7468 4.359C15.7598 4.37223 15.7696 4.38192 15.7756 4.38773L15.7813 4.39324L15.7821 4.39403L15.876 4.48154L15.9215 4.60345L15.9219 4.60455L15.9227 4.60667L15.925 4.61312L15.9327 4.63459C15.9391 4.65262 15.9479 4.67802 15.9586 4.71003C15.98 4.77398 16.0089 4.86471 16.0408 4.9762C16.1043 5.19808 16.1812 5.50768 16.2328 5.85554C16.3299 6.50978 16.3651 7.47119 15.851 8.17878C15.4075 8.78911 14.8765 9.11871 14.3068 9.1473C13.7529 9.1751 13.2892 8.91122 12.9802 8.60229C12.7562 8.37821 12.4801 8.11934 12.2322 7.89894C11.9717 7.66742 11.778 7.51056 11.7047 7.46394C11.6899 7.45452 11.6313 7.4283 11.4798 7.40691C11.3699 7.3914 11.2558 7.38328 11.1188 7.37352C11.0684 7.36993 11.0149 7.36612 10.9573 7.36164C10.7618 7.34642 10.5276 7.32354 10.3033 7.26448C10.0774 7.205 9.82119 7.09887 9.61116 6.88891C9.42879 6.7066 9.27076 6.41528 9.14706 6.18724L9.14065 6.17543L9.10069 6.10166C8.97012 5.86043 8.83727 5.615 8.68098 5.38145C8.32766 4.85347 7.9625 4.54994 7.50001 4.54994C6.5533 4.54994 5.92941 5.19667 5.37193 6.05067C5.23953 6.25349 5.11751 6.45738 4.99678 6.65911L4.98721 6.6751C4.86624 6.87721 4.74292 7.08292 4.62062 7.26264C4.50054 7.4391 4.36098 7.62172 4.1984 7.76383C4.03442 7.90717 3.79968 8.05012 3.5 8.05012C3.256 8.05012 2.89662 8.21955 2.5734 8.60684C2.26094 8.98124 2.05001 9.48459 2.05001 10.0002C2.05002 10.3039 1.80377 10.5502 1.50002 10.5502C1.19626 10.5502 0.950016 10.3039 0.950014 10.0002C0.950011 9.19384 1.27391 8.44717 1.72887 7.90202C2.1636 7.38111 2.78647 6.96806 3.45619 6.95069C3.46111 6.94692 3.46719 6.94199 3.47448 6.93562C3.53089 6.88631 3.60799 6.79548 3.71121 6.6438C3.81221 6.49537 3.91882 6.31825 4.04335 6.11018L4.05645 6.08829C4.17474 5.89063 4.30646 5.67053 4.45082 5.44939C5.03576 4.5533 5.94672 3.44994 7.50001 3.44994C8.53751 3.44994 9.18978 4.1639 9.59516 4.76967C9.78194 5.04878 9.93928 5.33978 10.0669 5.57584L10.1075 5.65084C10.2609 5.93348 10.3418 6.06394 10.3889 6.11097C10.4114 6.13352 10.4633 6.16913 10.5834 6.20074C10.705 6.23276 10.8545 6.25031 11.0427 6.26496C11.0813 6.26796 11.1228 6.2709 11.1661 6.27397C11.3134 6.2844 11.4824 6.29637 11.6336 6.31771C11.828 6.34517 12.0775 6.39733 12.2953 6.53594C12.4552 6.6377 12.7134 6.85498 12.963 7.0768C13.225 7.30973 13.517 7.58338 13.758 7.82447C13.9143 7.9807 14.0919 8.0567 14.2517 8.04869C14.3956 8.04146 14.6505 7.95952 14.9611 7.53214C15.201 7.20203 15.2362 6.63336 15.1448 6.01697C15.1021 5.72951 15.0376 5.46865 14.9833 5.2789C14.9619 5.20429 14.9424 5.14154 14.9268 5.09347C14.8936 5.0587 14.8539 5.01583 14.8102 4.96594C14.6905 4.82932 14.5331 4.63182 14.3949 4.39734C14.1418 3.96774 13.8325 3.19261 14.3429 2.48656C14.5951 2.13781 14.9395 1.97166 15.2984 1.94925C15.6282 1.92866 15.9351 2.03034 16.1665 2.13748C16.382 2.23723 16.5713 2.36021 16.7107 2.46122C16.9086 2.38973 17.1855 2.30992 17.536 2.25699C17.7565 2.22371 17.9204 2.1691 18.0777 2.11209L18.1284 2.09341C18.2652 2.04277 18.4592 1.97091 18.6607 1.95078C19.2131 1.89561 19.6793 2.20669 20.2883 2.77443C20.5117 2.98266 20.6383 3.23482 20.6716 3.50475C20.7033 3.76166 20.6459 3.99506 20.5735 4.17712C20.4455 4.49941 20.2229 4.76929 20.1347 4.87621L20.1149 4.90036C19.8573 5.21787 19.3805 5.59003 19.0194 5.8549C18.872 5.96304 18.7329 6.06106 18.6179 6.14054C18.6353 6.24085 18.6547 6.35813 18.674 6.48779C18.7358 6.9033 18.8 7.46146 18.8 7.99999Z" fill="black"/>
<path d="M17.65 4.20024C17.65 4.44877 17.4485 4.65024 17.2 4.65024C16.9515 4.65024 16.75 4.44877 16.75 4.20024C16.75 3.95172 16.9515 3.75024 17.2 3.75024C17.4485 3.75024 17.65 3.95172 17.65 4.20024Z" fill="black"/>
</svg>
