<svg width="20" height="20" viewBox="0 0 20 20" fill="none" xmlns="http://www.w3.org/2000/svg">
<path d="M4.81592 15.4175C4.81592 15.577 4.77604 15.7502 4.69629 15.937C4.61882 16.1216 4.49577 16.3039 4.32715 16.4839C4.15853 16.6616 3.9432 16.8063 3.68115 16.918C3.41911 17.0296 3.11377 17.0854 2.76514 17.0854C2.50081 17.0854 2.26042 17.0604 2.04395 17.0103C1.82747 16.9601 1.63037 16.8826 1.45264 16.7778C1.27718 16.6707 1.1154 16.5306 0.967285 16.3574C0.835124 16.2002 0.722331 16.0247 0.628906 15.8311C0.535482 15.6351 0.464844 15.4266 0.416992 15.2056C0.371419 14.9845 0.348633 14.7498 0.348633 14.5015C0.348633 14.0981 0.406738 13.737 0.522949 13.418C0.641439 13.099 0.810059 12.8267 1.02881 12.6011C1.24756 12.3732 1.50391 12.2 1.79785 12.0815C2.0918 11.9631 2.40511 11.9038 2.73779 11.9038C3.14339 11.9038 3.50456 11.9847 3.82129 12.1465C4.13802 12.3083 4.3807 12.5088 4.54932 12.748C4.71794 12.985 4.80225 13.2095 4.80225 13.4214C4.80225 13.5376 4.76123 13.6401 4.6792 13.729C4.59717 13.8179 4.49805 13.8623 4.38184 13.8623C4.25195 13.8623 4.15397 13.8315 4.08789 13.77C4.02409 13.7085 3.95231 13.6025 3.87256 13.4521C3.7404 13.2038 3.58431 13.0181 3.4043 12.895C3.22656 12.772 3.00667 12.7104 2.74463 12.7104C2.32764 12.7104 1.99495 12.8688 1.74658 13.1855C1.50049 13.5023 1.37744 13.9523 1.37744 14.5356C1.37744 14.9253 1.43213 15.25 1.5415 15.5098C1.65088 15.7673 1.80583 15.9598 2.00635 16.0874C2.20687 16.215 2.44157 16.2788 2.71045 16.2788C3.00212 16.2788 3.24821 16.207 3.44873 16.0635C3.65153 15.9176 3.8042 15.7046 3.90674 15.4243C3.95003 15.2922 4.00358 15.1851 4.06738 15.103C4.13118 15.0187 4.23372 14.9766 4.375 14.9766C4.49577 14.9766 4.59945 15.0187 4.68604 15.103C4.77262 15.1873 4.81592 15.2922 4.81592 15.4175Z" fill="black"/>
<path d="M8.93457 16.4326L8.69531 15.8037H6.6582L6.41895 16.4463C6.32552 16.6969 6.24577 16.8667 6.17969 16.9556C6.11361 17.0422 6.00537 17.0854 5.85498 17.0854C5.72738 17.0854 5.61458 17.0387 5.5166 16.9453C5.41862 16.8519 5.36963 16.7459 5.36963 16.6274C5.36963 16.5591 5.38102 16.4884 5.40381 16.4155C5.4266 16.3426 5.46419 16.2412 5.5166 16.1113L6.79834 12.8574C6.8348 12.764 6.87809 12.6523 6.92822 12.5225C6.98063 12.3903 7.03532 12.2809 7.09229 12.1943C7.15153 12.1077 7.22786 12.0382 7.32129 11.9858C7.41699 11.9312 7.53434 11.9038 7.67334 11.9038C7.81462 11.9038 7.93197 11.9312 8.02539 11.9858C8.12109 12.0382 8.19743 12.1066 8.25439 12.1909C8.31364 12.2752 8.36263 12.3664 8.40137 12.4644C8.44238 12.5601 8.49365 12.6888 8.55518 12.8506L9.86426 16.084C9.9668 16.3301 10.0181 16.509 10.0181 16.6206C10.0181 16.7368 9.96908 16.8439 9.87109 16.9419C9.77539 17.0376 9.65918 17.0854 9.52246 17.0854C9.44271 17.0854 9.37435 17.0706 9.31738 17.041C9.26042 17.0137 9.21257 16.9761 9.17383 16.9282C9.13509 16.8781 9.09294 16.8029 9.04736 16.7026C9.00407 16.6001 8.96647 16.5101 8.93457 16.4326ZM6.9248 15.0415H8.42188L7.6665 12.9736L6.9248 15.0415Z" fill="black"/>
<path d="M14.5742 15.4961C14.5742 15.7992 14.4956 16.0715 14.3384 16.313C14.1834 16.5545 13.9556 16.7437 13.6548 16.8804C13.354 17.0171 12.9974 17.0854 12.585 17.0854C12.0905 17.0854 11.6826 16.992 11.3613 16.8052C11.1335 16.6707 10.9478 16.4919 10.8042 16.2686C10.6629 16.043 10.5923 15.8242 10.5923 15.6123C10.5923 15.4893 10.6344 15.3844 10.7188 15.2979C10.8053 15.209 10.9147 15.1646 11.0469 15.1646C11.154 15.1646 11.244 15.1987 11.3169 15.2671C11.3921 15.3354 11.4559 15.4368 11.5083 15.5713C11.5721 15.7308 11.6405 15.8641 11.7134 15.9712C11.7886 16.0783 11.8934 16.1672 12.0278 16.2378C12.1623 16.3062 12.3389 16.3403 12.5576 16.3403C12.8584 16.3403 13.1022 16.2708 13.2891 16.1318C13.4782 15.9906 13.5728 15.8151 13.5728 15.6055C13.5728 15.4391 13.5215 15.3047 13.4189 15.2021C13.3187 15.0973 13.1877 15.0176 13.0259 14.9629C12.8664 14.9082 12.6522 14.8501 12.3833 14.7886C12.0233 14.7043 11.7214 14.6063 11.4775 14.4946C11.236 14.3807 11.0435 14.2269 10.8999 14.0332C10.7586 13.8372 10.688 13.5946 10.688 13.3052C10.688 13.0295 10.7632 12.7845 10.9136 12.5703C11.064 12.3561 11.2816 12.1921 11.5664 12.0781C11.8512 11.9619 12.1862 11.9038 12.5713 11.9038C12.8789 11.9038 13.1444 11.9425 13.3677 12.02C13.5933 12.0952 13.7801 12.1966 13.9282 12.3242C14.0763 12.4495 14.1846 12.5817 14.2529 12.7207C14.3213 12.8597 14.3555 12.9953 14.3555 13.1274C14.3555 13.2482 14.3122 13.3576 14.2256 13.4556C14.1413 13.5513 14.0353 13.5991 13.9077 13.5991C13.7915 13.5991 13.7026 13.5706 13.6411 13.5137C13.5819 13.4544 13.5169 13.3587 13.4463 13.2266C13.3551 13.0374 13.2458 12.8905 13.1182 12.7856C12.9906 12.6785 12.7855 12.625 12.5029 12.625C12.2409 12.625 12.029 12.6831 11.8672 12.7993C11.7077 12.9132 11.6279 13.0511 11.6279 13.2129C11.6279 13.3132 11.6553 13.3997 11.71 13.4727C11.7646 13.5456 11.8398 13.6082 11.9355 13.6606C12.0312 13.7131 12.1281 13.7541 12.2261 13.7837C12.3241 13.8133 12.4858 13.8566 12.7114 13.9136C12.994 13.9797 13.2492 14.0526 13.4771 14.1323C13.7072 14.2121 13.902 14.3089 14.0615 14.4229C14.2233 14.5368 14.3486 14.6815 14.4375 14.8569C14.5286 15.0301 14.5742 15.2432 14.5742 15.4961Z" fill="black"/>
<path d="M18.7373 12.772H16.4507V14.0024H18.5562C18.7111 14.0024 18.8262 14.0378 18.9014 14.1084C18.9788 14.1768 19.0176 14.2679 19.0176 14.3818C19.0176 14.4958 18.98 14.5892 18.9048 14.6621C18.8296 14.7327 18.7134 14.7681 18.5562 14.7681H16.4507V16.1934H18.8159C18.9754 16.1934 19.0951 16.231 19.1748 16.3062C19.2568 16.3791 19.2979 16.4771 19.2979 16.6001C19.2979 16.7186 19.2568 16.8154 19.1748 16.8906C19.0951 16.9635 18.9754 17 18.8159 17H16.0576C15.8366 17 15.6771 16.951 15.5791 16.853C15.4834 16.755 15.4355 16.5967 15.4355 16.3779V12.6113C15.4355 12.4655 15.4572 12.347 15.5005 12.2559C15.5438 12.1624 15.611 12.0952 15.7021 12.0542C15.7956 12.0109 15.9141 11.9893 16.0576 11.9893H18.7373C18.8991 11.9893 19.0187 12.0257 19.0962 12.0986C19.1759 12.1693 19.2158 12.2627 19.2158 12.3789C19.2158 12.4974 19.1759 12.5931 19.0962 12.666C19.0187 12.7367 18.8991 12.772 18.7373 12.772Z" fill="black"/>
<path fill-rule="evenodd" clip-rule="evenodd" d="M3.27801 4.36145C3.37102 4.15851 3.5873 4.04182 3.80799 4.07551L6.3089 4.45727C6.53571 4.49189 6.70985 4.67643 6.73127 4.90486L6.89358 6.63577C6.89934 6.69723 6.89367 6.75923 6.87686 6.81863L5.95102 10.0896C5.88235 10.3322 5.64375 10.4857 5.39447 10.4477L2.89356 10.0659C2.69145 10.035 2.52848 9.88424 2.48206 9.68513L1.96656 7.47378C1.9414 7.36587 1.95281 7.25266 1.99898 7.15193L3.27801 4.36145ZM4.02992 5.12097L2.97925 7.41321L3.3791 9.12842L5.10904 9.3925L5.88922 6.63614L5.77208 5.38691L4.02992 5.12097Z" fill="black"/>
<path fill-rule="evenodd" clip-rule="evenodd" d="M7.65212 4.77948C7.68564 4.55877 7.86141 4.38702 8.08283 4.35861L10.5922 4.03669C10.8197 4.0075 11.038 4.13693 11.1215 4.35062L11.7543 5.96985C11.7768 6.02735 11.7884 6.08851 11.7886 6.15024L11.7996 9.54965C11.8004 9.80181 11.6133 10.0151 11.3632 10.0472L8.85391 10.3691C8.65112 10.3951 8.45293 10.2951 8.35346 10.1164L7.24875 8.13265C7.19484 8.03585 7.17462 7.92387 7.19125 7.81433L7.65212 4.77948ZM8.58416 5.30249L8.20558 7.79547L9.06243 9.33418L10.7982 9.1115L10.7889 6.24687L10.3322 5.07824L8.58416 5.30249Z" fill="black"/>
<path fill-rule="evenodd" clip-rule="evenodd" d="M13.5512 4.40197C13.6371 4.19592 13.8492 4.07177 14.0709 4.09776L16.5836 4.39222C16.8115 4.41892 16.9919 4.59729 17.0213 4.82483L17.2437 6.54904C17.2516 6.61026 17.2481 6.67242 17.2334 6.73237L16.422 10.0335C16.3618 10.2784 16.1287 10.4402 15.8783 10.4108L13.3656 10.1163C13.1625 10.0925 12.9944 9.94752 12.9411 9.75014L12.3489 7.55808C12.32 7.45111 12.3275 7.33757 12.3701 7.23529L13.5512 4.40197ZM14.3291 5.13486L13.3589 7.46229L13.8182 9.16254L15.5563 9.36622L16.24 6.58438L16.0795 5.33998L14.3291 5.13486Z" fill="black"/>
<path fill-rule="evenodd" clip-rule="evenodd" d="M14.8229 7.23755C14.8229 6.96141 15.0467 6.73755 15.3229 6.73755L18.8029 6.73755C19.079 6.73755 19.3029 6.96141 19.3029 7.23755C19.3029 7.51369 19.079 7.73755 18.8029 7.73755L15.3229 7.73755C15.0467 7.73755 14.8229 7.51369 14.8229 7.23755Z" fill="black"/>
<path fill-rule="evenodd" clip-rule="evenodd" d="M9.69 7.23755C9.69 6.96141 9.91386 6.73755 10.19 6.73755L12.77 6.73755C13.0461 6.73755 13.27 6.96141 13.27 7.23755C13.27 7.51369 13.0461 7.73755 12.77 7.73755L10.19 7.73755C9.91386 7.73755 9.69 7.51369 9.69 7.23755Z" fill="black"/>
<path fill-rule="evenodd" clip-rule="evenodd" d="M4.55859 7.23755C4.55859 6.96141 4.78245 6.73755 5.05859 6.73755L7.63859 6.73755C7.91474 6.73755 8.13859 6.96141 8.13859 7.23755C8.13859 7.51369 7.91474 7.73755 7.63859 7.73755L5.05859 7.73755C4.78245 7.73755 4.55859 7.51369 4.55859 7.23755Z" fill="black"/>
<path fill-rule="evenodd" clip-rule="evenodd" d="M0.5 7.23755C0.5 6.96141 0.723858 6.73755 1 6.73755L2.51 6.73755C2.78614 6.73755 3.01 6.96141 3.01 7.23755C3.01 7.51369 2.78614 7.73755 2.51 7.73755L1 7.73755C0.723858 7.73755 0.5 7.51369 0.5 7.23755Z" fill="black"/>
</svg>
