<svg width="20" height="20" viewBox="0 0 20 20" fill="none" xmlns="http://www.w3.org/2000/svg">
<path d="M4.81592 15.4175C4.81592 15.577 4.77604 15.7502 4.69629 15.937C4.61882 16.1216 4.49577 16.3039 4.32715 16.4839C4.15853 16.6616 3.9432 16.8063 3.68115 16.918C3.41911 17.0296 3.11377 17.0854 2.76514 17.0854C2.50081 17.0854 2.26042 17.0604 2.04395 17.0103C1.82747 16.9601 1.63037 16.8826 1.45264 16.7778C1.27718 16.6707 1.1154 16.5306 0.967285 16.3574C0.835124 16.2002 0.722331 16.0247 0.628906 15.8311C0.535482 15.6351 0.464844 15.4266 0.416992 15.2056C0.371419 14.9845 0.348633 14.7498 0.348633 14.5015C0.348633 14.0981 0.406738 13.737 0.522949 13.418C0.641439 13.099 0.810059 12.8267 1.02881 12.6011C1.24756 12.3732 1.50391 12.2 1.79785 12.0815C2.0918 11.9631 2.40511 11.9038 2.73779 11.9038C3.14339 11.9038 3.50456 11.9847 3.82129 12.1465C4.13802 12.3083 4.3807 12.5088 4.54932 12.748C4.71794 12.985 4.80225 13.2095 4.80225 13.4214C4.80225 13.5376 4.76123 13.6401 4.6792 13.729C4.59717 13.8179 4.49805 13.8623 4.38184 13.8623C4.25195 13.8623 4.15397 13.8315 4.08789 13.77C4.02409 13.7085 3.95231 13.6025 3.87256 13.4521C3.7404 13.2038 3.58431 13.0181 3.4043 12.895C3.22656 12.772 3.00667 12.7104 2.74463 12.7104C2.32764 12.7104 1.99495 12.8688 1.74658 13.1855C1.50049 13.5023 1.37744 13.9523 1.37744 14.5356C1.37744 14.9253 1.43213 15.25 1.5415 15.5098C1.65088 15.7673 1.80583 15.9598 2.00635 16.0874C2.20687 16.215 2.44157 16.2788 2.71045 16.2788C3.00212 16.2788 3.24821 16.207 3.44873 16.0635C3.65153 15.9176 3.8042 15.7046 3.90674 15.4243C3.95003 15.2922 4.00358 15.1851 4.06738 15.103C4.13118 15.0187 4.23372 14.9766 4.375 14.9766C4.49577 14.9766 4.59945 15.0187 4.68604 15.103C4.77262 15.1873 4.81592 15.2922 4.81592 15.4175Z" fill="black"/>
<path d="M8.93457 16.4326L8.69531 15.8037H6.6582L6.41895 16.4463C6.32552 16.6969 6.24577 16.8667 6.17969 16.9556C6.11361 17.0422 6.00537 17.0854 5.85498 17.0854C5.72738 17.0854 5.61458 17.0387 5.5166 16.9453C5.41862 16.8519 5.36963 16.7459 5.36963 16.6274C5.36963 16.5591 5.38102 16.4884 5.40381 16.4155C5.4266 16.3426 5.46419 16.2412 5.5166 16.1113L6.79834 12.8574C6.8348 12.764 6.87809 12.6523 6.92822 12.5225C6.98063 12.3903 7.03532 12.2809 7.09229 12.1943C7.15153 12.1077 7.22786 12.0382 7.32129 11.9858C7.41699 11.9312 7.53434 11.9038 7.67334 11.9038C7.81462 11.9038 7.93197 11.9312 8.02539 11.9858C8.12109 12.0382 8.19743 12.1066 8.25439 12.1909C8.31364 12.2752 8.36263 12.3664 8.40137 12.4644C8.44238 12.5601 8.49365 12.6888 8.55518 12.8506L9.86426 16.084C9.9668 16.3301 10.0181 16.509 10.0181 16.6206C10.0181 16.7368 9.96908 16.8439 9.87109 16.9419C9.77539 17.0376 9.65918 17.0854 9.52246 17.0854C9.44271 17.0854 9.37435 17.0706 9.31738 17.041C9.26042 17.0137 9.21257 16.9761 9.17383 16.9282C9.13509 16.8781 9.09294 16.8029 9.04736 16.7026C9.00407 16.6001 8.96647 16.5101 8.93457 16.4326ZM6.9248 15.0415H8.42188L7.6665 12.9736L6.9248 15.0415Z" fill="black"/>
<path d="M14.5742 15.4961C14.5742 15.7992 14.4956 16.0715 14.3384 16.313C14.1834 16.5545 13.9556 16.7437 13.6548 16.8804C13.354 17.0171 12.9974 17.0854 12.585 17.0854C12.0905 17.0854 11.6826 16.992 11.3613 16.8052C11.1335 16.6707 10.9478 16.4919 10.8042 16.2686C10.6629 16.043 10.5923 15.8242 10.5923 15.6123C10.5923 15.4893 10.6344 15.3844 10.7188 15.2979C10.8053 15.209 10.9147 15.1646 11.0469 15.1646C11.154 15.1646 11.244 15.1987 11.3169 15.2671C11.3921 15.3354 11.4559 15.4368 11.5083 15.5713C11.5721 15.7308 11.6405 15.8641 11.7134 15.9712C11.7886 16.0783 11.8934 16.1672 12.0278 16.2378C12.1623 16.3062 12.3389 16.3403 12.5576 16.3403C12.8584 16.3403 13.1022 16.2708 13.2891 16.1318C13.4782 15.9906 13.5728 15.8151 13.5728 15.6055C13.5728 15.4391 13.5215 15.3047 13.4189 15.2021C13.3187 15.0973 13.1877 15.0176 13.0259 14.9629C12.8664 14.9082 12.6522 14.8501 12.3833 14.7886C12.0233 14.7043 11.7214 14.6063 11.4775 14.4946C11.236 14.3807 11.0435 14.2269 10.8999 14.0332C10.7586 13.8372 10.688 13.5946 10.688 13.3052C10.688 13.0295 10.7632 12.7845 10.9136 12.5703C11.064 12.3561 11.2816 12.1921 11.5664 12.0781C11.8512 11.9619 12.1862 11.9038 12.5713 11.9038C12.8789 11.9038 13.1444 11.9425 13.3677 12.02C13.5933 12.0952 13.7801 12.1966 13.9282 12.3242C14.0763 12.4495 14.1846 12.5817 14.2529 12.7207C14.3213 12.8597 14.3555 12.9953 14.3555 13.1274C14.3555 13.2482 14.3122 13.3576 14.2256 13.4556C14.1413 13.5513 14.0353 13.5991 13.9077 13.5991C13.7915 13.5991 13.7026 13.5706 13.6411 13.5137C13.5819 13.4544 13.5169 13.3587 13.4463 13.2266C13.3551 13.0374 13.2458 12.8905 13.1182 12.7856C12.9906 12.6785 12.7855 12.625 12.5029 12.625C12.2409 12.625 12.029 12.6831 11.8672 12.7993C11.7077 12.9132 11.6279 13.0511 11.6279 13.2129C11.6279 13.3132 11.6553 13.3997 11.71 13.4727C11.7646 13.5456 11.8398 13.6082 11.9355 13.6606C12.0312 13.7131 12.1281 13.7541 12.2261 13.7837C12.3241 13.8133 12.4858 13.8566 12.7114 13.9136C12.994 13.9797 13.2492 14.0526 13.4771 14.1323C13.7072 14.2121 13.902 14.3089 14.0615 14.4229C14.2233 14.5368 14.3486 14.6815 14.4375 14.8569C14.5286 15.0301 14.5742 15.2432 14.5742 15.4961Z" fill="black"/>
<path d="M18.7373 12.772H16.4507V14.0024H18.5562C18.7111 14.0024 18.8262 14.0378 18.9014 14.1084C18.9788 14.1768 19.0176 14.2679 19.0176 14.3818C19.0176 14.4958 18.98 14.5892 18.9048 14.6621C18.8296 14.7327 18.7134 14.7681 18.5562 14.7681H16.4507V16.1934H18.8159C18.9754 16.1934 19.0951 16.231 19.1748 16.3062C19.2568 16.3791 19.2979 16.4771 19.2979 16.6001C19.2979 16.7186 19.2568 16.8154 19.1748 16.8906C19.0951 16.9635 18.9754 17 18.8159 17H16.0576C15.8366 17 15.6771 16.951 15.5791 16.853C15.4834 16.755 15.4355 16.5967 15.4355 16.3779V12.6113C15.4355 12.4655 15.4572 12.347 15.5005 12.2559C15.5438 12.1624 15.611 12.0952 15.7021 12.0542C15.7956 12.0109 15.9141 11.9893 16.0576 11.9893H18.7373C18.8991 11.9893 19.0187 12.0257 19.0962 12.0986C19.1759 12.1693 19.2158 12.2627 19.2158 12.3789C19.2158 12.4974 19.1759 12.5931 19.0962 12.666C19.0187 12.7367 18.8991 12.772 18.7373 12.772Z" fill="black"/>
<path d="M16.6064 4.26006C16.6064 4.50859 16.4049 4.71006 16.1564 4.71006C15.9078 4.71006 15.7064 4.50859 15.7064 4.26006C15.7064 4.01153 15.9078 3.81006 16.1564 3.81006C16.4049 3.81006 16.6064 4.01153 16.6064 4.26006Z" fill="black"/>
<path d="M16.9517 10.336L16.9513 10.3372C16.862 10.6274 16.5543 10.7906 16.264 10.7013C15.9736 10.6121 15.8107 10.3041 15.8999 10.0138L15.9003 10.0125L15.9012 10.0097L15.9044 9.99931L15.9181 9.95599C15.9309 9.91566 15.9518 9.85021 15.9847 9.7484C16.0505 9.54481 16.1644 9.19494 16.3575 8.60825C16.5154 8.12846 16.5227 7.51956 16.4767 6.99299C16.4543 6.73684 16.4206 6.51424 16.3926 6.35636C16.3787 6.27764 16.3662 6.21561 16.3575 6.17423C16.3532 6.15355 16.3498 6.13808 16.3476 6.1283L16.3452 6.118L16.3449 6.11664L16.2551 5.73994L16.5795 5.52846L16.5822 5.52669L16.5918 5.52036L16.6305 5.49478C16.6643 5.47226 16.7136 5.43923 16.7742 5.3979C16.8956 5.31509 17.0613 5.19979 17.2388 5.06957C17.6135 4.79478 17.9756 4.50014 18.1307 4.30903L18.1463 4.28971C18.2421 4.17192 18.3599 4.027 18.4213 3.8726C18.4509 3.798 18.4518 3.75604 18.4498 3.7404C18.4496 3.73627 18.4483 3.71799 18.4083 3.6807C17.8096 3.12264 17.6643 3.14354 17.6418 3.14677L17.6401 3.14701C17.5859 3.15242 17.5305 3.17248 17.3412 3.24116L17.3226 3.24788C17.1388 3.31455 16.896 3.39714 16.5702 3.44634C16.2864 3.48919 16.0744 3.55312 15.9392 3.60303C15.8715 3.62799 15.823 3.64944 15.7944 3.66299C15.78 3.66976 15.7707 3.67454 15.7664 3.67679L15.7649 3.67755L15.4191 3.87583L15.1237 3.60372L15.1228 3.60292L15.1171 3.59783C15.111 3.59243 15.1008 3.58355 15.087 3.57192C15.0593 3.54855 15.0176 3.51464 14.9654 3.47574C14.8584 3.39603 14.7195 3.30452 14.5744 3.23738C14.4229 3.16723 14.3087 3.1443 14.237 3.14878C14.1944 3.15144 14.1569 3.16004 14.1044 3.23271C14.0054 3.36957 14.0048 3.5877 14.2127 3.94064C14.3051 4.09743 14.4163 4.23851 14.5075 4.34267C14.5524 4.39388 14.5907 4.43413 14.6168 4.46067C14.6298 4.4739 14.6396 4.48359 14.6456 4.4894L14.6513 4.49491L14.6521 4.4957L14.746 4.58321L14.7914 4.70485L14.7919 4.70622L14.7927 4.70834L14.795 4.71478L14.8027 4.73626C14.8091 4.75429 14.8179 4.77969 14.8286 4.8117C14.85 4.87565 14.8789 4.96638 14.9108 5.07787C14.9743 5.29975 15.0512 5.60935 15.1029 5.95721C15.1999 6.61145 15.2351 7.57286 14.721 8.28045C14.3115 8.8439 13.8532 9.21548 13.3134 9.24863C12.7756 9.28166 12.3709 8.96374 12.1111 8.70396C11.9347 8.52754 11.7848 8.36696 11.6631 8.23665C11.6197 8.19016 11.5799 8.14753 11.5438 8.1094C11.3926 7.94988 11.3165 7.88169 11.2647 7.84873C11.1695 7.78816 11.1366 7.78394 11.0297 7.77026C11.0075 7.76742 10.9822 7.76418 10.9524 7.75993C10.8471 7.74492 10.7088 7.7175 10.5511 7.6389C10.3989 7.56303 10.2564 7.45357 10.1112 7.30839C9.90673 7.10403 9.78316 6.82165 9.69916 6.61106C9.6527 6.49458 9.6172 6.39788 9.58378 6.30684C9.54051 6.18898 9.50072 6.08061 9.44514 5.95109C9.25658 5.51165 9.12723 5.44961 9.00165 5.44998C8.70241 5.45088 8.5356 5.54376 8.41234 5.66364C8.26702 5.80497 8.1527 6.01297 8.02512 6.30016C8.00448 6.34662 7.98265 6.39752 7.95956 6.45138C7.85989 6.6838 7.73659 6.97134 7.58335 7.19465C7.36709 7.50978 7.02694 7.79989 6.50011 7.79999C6.26594 7.80003 6.04665 7.74405 5.85447 7.62258C5.66628 7.50364 5.53871 7.3438 5.4495 7.18978C5.31312 6.95428 5.22981 6.65512 5.16872 6.43576C5.15799 6.39723 5.14794 6.36117 5.13842 6.32834C5.06003 6.05822 4.99373 5.89549 4.90638 5.79327C4.84893 5.72604 4.75532 5.64999 4.50001 5.64999C4.20915 5.64999 4.01452 5.72586 3.86428 5.83052C3.7036 5.94244 3.56395 6.10817 3.41997 6.33227C3.34842 6.44364 3.28052 6.56169 3.20812 6.68964L3.17967 6.73998C3.11749 6.8501 3.05055 6.96865 2.98147 7.0815C2.82531 7.33664 2.61832 7.6323 2.31566 7.83882C1.96258 8.07975 1.66169 8.62741 1.44374 9.22786C1.34109 9.51064 1.26726 9.77518 1.21913 9.96939C1.19517 10.0661 1.17783 10.1443 1.16666 10.1974C1.16109 10.2239 1.15706 10.2441 1.15454 10.2571L1.15187 10.271L1.15141 10.2735C1.09723 10.5722 0.811165 10.7709 0.512368 10.7169C0.213453 10.6629 0.0149209 10.3768 0.0689359 10.0779L0.069164 10.0766L0.0695356 10.0746L0.0707113 10.0683L0.0748139 10.0468C0.0783357 10.0288 0.083449 10.0032 0.0902209 9.97098C0.103753 9.90665 0.12397 9.81559 0.151424 9.70481C0.206131 9.48404 0.29058 9.18084 0.409749 8.85254C0.635428 8.2308 1.03228 7.38287 1.69565 6.93021C1.798 6.86036 1.90553 6.73227 2.04327 6.50724C2.10143 6.41222 2.15787 6.31232 2.22085 6.20083L2.25076 6.14791C2.32374 6.01894 2.4048 5.87733 2.49452 5.73768C2.6731 5.45974 2.90527 5.15797 3.23555 4.92791C3.57627 4.69058 3.99174 4.54999 4.50001 4.54999C5.04382 4.54999 5.45554 4.74271 5.74262 5.07863C5.9998 5.37958 6.11725 5.75439 6.19484 6.02179C6.2111 6.07783 6.22578 6.12936 6.23932 6.17692C6.30259 6.39905 6.34117 6.53452 6.40139 6.6385C6.41514 6.66223 6.42598 6.67623 6.43293 6.68397C6.43633 6.68774 6.44012 6.69115 6.44012 6.69115L6.44218 6.69275C6.44218 6.69275 6.44504 6.69401 6.44835 6.6949C6.45474 6.69662 6.47068 6.69999 6.49991 6.69999C6.55004 6.69998 6.59079 6.69694 6.67637 6.57224C6.76253 6.44668 6.82916 6.29253 6.92281 6.07586C6.95205 6.00821 6.98392 5.93447 7.01984 5.8536C7.15294 5.55397 7.33721 5.17484 7.6454 4.87509C7.97566 4.55388 8.41728 4.35172 8.99837 4.34999C9.87279 4.34738 10.2609 5.06255 10.456 5.51732C10.5152 5.65523 10.5809 5.8316 10.6368 5.98183C10.6691 6.06859 10.6982 6.14663 10.7209 6.20352C10.8055 6.41564 10.8607 6.50231 10.8889 6.53045C10.9762 6.61778 11.0244 6.64573 11.0418 6.65444C11.0538 6.66042 11.0642 6.66476 11.1076 6.67094C11.1217 6.67295 11.1377 6.67485 11.1556 6.67697C11.2949 6.69349 11.5448 6.72313 11.8553 6.92073C12.0367 7.03615 12.198 7.20055 12.3422 7.3528C12.3869 7.39995 12.432 7.44822 12.4788 7.49832C12.5974 7.62539 12.727 7.76418 12.8889 7.92614C13.0943 8.13151 13.2006 8.15349 13.246 8.1507C13.2894 8.14803 13.4865 8.10808 13.8311 7.63381C14.071 7.3037 14.1062 6.73503 14.0148 6.11864C13.9721 5.83118 13.9076 5.57032 13.8533 5.38057C13.832 5.30596 13.8124 5.24321 13.7968 5.19514C13.7636 5.16037 13.7239 5.1175 13.6802 5.06761C13.5605 4.93099 13.4031 4.73349 13.2649 4.49901C13.0118 4.06941 12.7025 3.29428 13.2129 2.58823C13.4651 2.23948 13.8095 2.07333 14.1684 2.05092C14.4982 2.03033 14.8051 2.13201 15.0365 2.23915C15.252 2.3389 15.4413 2.46189 15.5807 2.56289C15.7786 2.4914 16.0555 2.41159 16.406 2.35867C16.6265 2.32538 16.7904 2.27077 16.9477 2.21376L16.9984 2.19508C17.1352 2.14444 17.3292 2.07258 17.5307 2.05245C18.0831 1.99728 18.5493 2.30836 19.1584 2.8761C19.3817 3.08433 19.5084 3.33649 19.5416 3.60642C19.5733 3.86333 19.5159 4.09673 19.4435 4.27879C19.3155 4.60108 19.0929 4.87097 19.0047 4.97788L18.9849 5.00203C18.7273 5.31954 18.2505 5.69171 17.8894 5.95657C17.7425 6.06435 17.6038 6.16208 17.489 6.24143C17.5181 6.41574 17.5501 6.64153 17.5725 6.89713C17.6229 7.47301 17.6302 8.25962 17.4024 8.95208C17.2097 9.53765 17.0964 9.88551 17.0315 10.0866C16.999 10.1871 16.9786 10.2507 16.9665 10.2889L16.9541 10.3282L16.9517 10.336Z" fill="black"/>
</svg>
