<svg height="215" viewBox="0 0 215 215" width="215" xmlns="http://www.w3.org/2000/svg"><g fill-rule="evenodd"><path d="m149.5 41.5c35.898509 0 65 29.1014913 65 65 0 35.898509-29.101491 65-65 65-9.996142 0-19.46526-2.256458-27.925784-6.287804 5.585002-5.241325 10.420616-11.268381 14.331338-17.905562 4.271432 1.422693 8.842939 2.193366 13.594446 2.193366 23.748244 0 43-19.251756 43-43 0-23.7482442-19.251756-43-43-43-4.751507 0-9.323014.7706729-13.59634 2.193838-3.908828-6.6376525-8.744442-12.6647094-14.327731-17.9044259 8.458811-4.0329539 17.927929-6.2894121 27.924071-6.2894121z"/><circle cx="66.5" cy="106.5" r="66"/></g></svg>