<?xml version="1.0" ?>
<!-- Uploaded to: SVG Repo, www.svgrepo.com, Generator: SVG Repo Mixer Tools -->
<svg fill="#000000" width="800px" height="800px" viewBox="0 0 32 32" id="Camada_1" version="1.1" xml:space="preserve" xmlns="http://www.w3.org/2000/svg" xmlns:xlink="http://www.w3.org/1999/xlink">
<g>
<path d="M8.4,21.1H5.9V9.9h3.8l0.7,4.7h0.1L11,9.9h3.8v11.2h-2.5v-6.7h-0.1l-0.9,6.7H9.4l-1-6.7h0L8.4,21.1L8.4,21.1z"/>
<path d="M15.8,9.8c0.4,0,3.2-0.1,4.7,0.1c1.2,0.1,1.8,1.1,1.9,2.3c0.1,2.2,0.1,4.4,0.1,6.6c0,0.2,0,0.5-0.1,0.8   c-0.2,0.9-0.7,1.4-1.9,1.5c-1.5,0.1-3,0.1-4.4,0.1c0,0-0.1,0-0.2,0V9.8z M18.8,11.9v7.2c0.5,0,0.8-0.2,0.8-0.7c0-1.9,0-3.9,0-5.9   C19.6,12,19.4,11.8,18.8,11.9z"/>
<path d="M2,21.1V9.9h2.9v11.2H2z"/>
<path d="M29.9,14.1c-0.1-0.8-0.6-1.2-1.4-1.4c-0.8-0.1-1.6,0-2.3,0.7V9.9h-2.8v11.2H26c0.1-0.2,0.1-0.4,0.2-0.5c0,0,0,0,0.1,0   c0.1,0.1,0.2,0.2,0.3,0.3c0.7,0.5,1.5,0.6,2.3,0.3c0.7-0.3,1-0.9,1-1.6c0-0.8,0.1-1.7,0.1-2.6C30,16,30,15,29.9,14.1L29.9,14.1z    M27.1,19.1c0,0.2-0.2,0.4-0.4,0.4s-0.4-0.2-0.4-0.4v-4.3c0-0.2,0.2-0.4,0.4-0.4s0.4,0.2,0.4,0.4V19.1z"/>
</g>
</svg>