<?xml version="1.0" encoding="UTF-8"?>
<svg width="180px" height="180px" viewBox="0 0 180 180" version="1.1" xmlns="http://www.w3.org/2000/svg" xmlns:xlink="http://www.w3.org/1999/xlink">
    <title>thesaurus</title>
    <g id="Page-1" stroke="none" stroke-width="1" fill="none" fill-rule="evenodd">
        <path d="M46.3051599,180 L152.63118,180 C155.063872,180 157.066633,179.211298 158.639464,177.633893 C160.213155,176.056402 161,174.02671 161,171.544818 C161,169.357472 160.370782,167.569689 159.112345,166.181469 C157.853908,164.793336 156.343784,163.594474 154.581972,162.584883 C152.14928,161.32296 150.219963,159.55624 148.794021,157.284726 C147.368079,155.013211 146.539572,152.489278 146.308501,149.712925 C146.078289,146.936615 146.518956,144.139272 147.630504,141.320895 C148.742052,138.50251 150.597924,135.894455 153.198121,133.49673 C155.756227,131.351391 157.675236,129.069345 158.955147,126.650592 C160.2342,124.231821 160.873727,120.940193 160.873727,116.775706 L160.873727,29.7003813 C160.873727,20.7404468 158.535525,13.883776 153.859122,9.130369 C149.18186,4.37678967 142.376423,2 133.442809,2 L46.4937966,2 C37.5599255,2 30.7441368,4.36627938 26.0464305,9.09883814 C21.3488102,13.8312246 19,20.6984056 19,29.7003813 L19,152.615444 C19,161.449169 21.3383304,168.221715 26.0149911,172.93308 C30.6916518,177.64436 37.4550414,180 46.3051599,180 L46.3051599,180 Z M49.9649926,163 C45.351908,163 41.8711595,161.74003 39.5227473,159.220091 C37.1742491,156.700065 36,153.470645 36,149.53183 C36,145.762381 37.2476397,142.607066 39.742919,140.065885 C42.2381124,137.524707 45.7922514,136.254117 50.405336,136.254117 L129.540895,136.254117 C130.044194,136.254117 130.515714,136.232941 130.955456,136.190588 C131.396058,136.148235 131.825923,136.084706 132.245052,136 C130.064377,140.531769 129.058209,145.17999 129.226548,149.944664 C129.394028,154.709407 130.651845,159.061185 133,163 L49.9649926,163 Z M45.9688983,17 C47.3353389,17 48.5154661,17.4819887 49.5092796,18.4459661 C50.5030932,19.4100293 51,20.6045715 51,22.0295928 L51,117.970278 C51,119.395386 50.5030932,120.589928 49.5092796,121.553905 C48.5154661,122.517968 47.3353389,123 45.9688983,123 C44.6438418,123 43.4844067,122.517968 42.4905932,121.553905 C41.4968644,120.589928 41,119.395386 41,117.970278 L41,22.0295928 C41,20.6045715 41.4968644,19.4100293 42.4905932,18.4459661 C43.4844067,17.4819887 44.6438418,17 45.9688983,17 Z M128.755859,33.0180664 C131.93457,33.0180664 134.087891,34.9663086 134.087891,37.9912109 C134.087891,41.0161133 131.93457,42.9643555 128.755859,42.9643555 L128.755859,42.9643555 L110.657715,42.9643555 L110.657715,101.873047 C110.657715,105.564453 108.453125,107.820312 104.915527,107.820312 C101.32666,107.820312 99.1733398,105.564453 99.1733398,101.873047 L99.1733398,101.873047 L99.1733398,42.9643555 L81.0239258,42.9643555 C77.8452148,42.9643555 75.6918945,41.0161133 75.6918945,37.9912109 C75.6918945,34.9663086 77.8452148,33.0180664 81.0239258,33.0180664 L81.0239258,33.0180664 Z" id="Thesaurus" fill="#000000" fill-rule="nonzero"></path>
    </g>
</svg>