<?xml version="1.0" encoding="utf-8"?>
<!-- Uploaded to: SVG Repo, www.svgrepo.com, Generator: SVG Repo Mixer Tools -->
<svg fill="#000000" width="800px" height="800px" viewBox="0 0 32 32" version="1.1" xmlns="http://www.w3.org/2000/svg">
<title>rottentomatoes</title>
<path d="M10.299 12.882l0.030 0.422c0.018 0.232 0.030 0.911 0.030 1.507v1.083l0.727-0.031c0.379-0.013 0.738-0.048 1.090-0.104l-0.049 0.007c0.867-0.182 1.31-0.597 1.358-1.272 0.008-0.054 0.013-0.116 0.013-0.179 0-0.357-0.15-0.68-0.391-0.908l-0.001-0.001c-0.397-0.386-0.951-0.52-2.166-0.522zM6.53 10.023h3.097c0.425-0.045 0.917-0.070 1.416-0.070 1.070 0 2.113 0.118 3.116 0.34l-0.095-0.018c1.282 0.347 2.315 1.213 2.879 2.353l0.012 0.026c0.062 0.132 0.115 0.257 0.162 0.381l9.526 0.010 0.034 3.639-3.43-0.030v9.434l-3.726-0.020v-9.4l-2.658 0.020c-0.312 0.589-0.76 1.068-1.304 1.408l-0.015 0.009c-0.359 0.22-0.375 0.237-0.317 0.33 0.159 0.25 2.655 4.551 2.655 4.572l-4.236 0.024-2.515-4.219c-0.042-0.059-0.152-0.085-0.43-0.105l-0.371-0.025 0.046 4.349-3.843-0.047zM8.335 1.004l-1.913 1.577 2.602 2.249c-0.462-0.152-0.993-0.24-1.545-0.24-2.118 0-3.934 1.29-4.705 3.128l-0.013 0.034c0.992-0.285 2.131-0.449 3.308-0.449 0.306 0 0.61 0.011 0.911 0.033l-0.040-0.002c-3.546 2.315-5.857 6.265-5.857 10.755 0 3.689 1.561 7.014 4.058 9.351l0.007 0.007c2.805 2.208 6.389 3.541 10.284 3.541 4.757 0 9.049-1.988 12.091-5.179l0.006-0.007c7.542-8.098 2.209-23.984-12.953-21.34 0.134-1.462 0.791-1.878 1.553-2.002-1.112-1.866-4.586-0.917-5.693 1.717-0.034 0.080-2.101-3.172-2.101-3.172z"></path>
</svg>