<?xml version="1.0" encoding="UTF-8"?>
<svg width="270px" height="270px" viewBox="0 0 270 270" version="1.1" xmlns="http://www.w3.org/2000/svg" xmlns:xlink="http://www.w3.org/1999/xlink">
    <title>arc-browser</title>
    <g id="arc-browser" stroke="none" stroke-width="1" fill="none" fill-rule="evenodd">
        <g transform="translate(0.000343, 22.000016)">
            <g id="Group" transform="translate(0.000000, -0.000000)">
                <path d="M87.493817,183.823726 L112.945887,130.295282 C93.506117,126.168464 73.946101,114.148604 62.883469,99.5244408 L36.269021,155.456856 C51.059279,167.997577 68.815605,177.853862 87.493817,183.823726" id="Path" fill="#1A007F"></path>
                <path d="M193.711117,97.9217928 C180.924959,113.587677 163.168633,125.206875 144.169765,129.734356 L169.541671,183.102534 C188.059555,176.852207 205.374979,166.755524 220.325565,153.814142 L193.711117,97.9217928 Z" id="Path" fill="#4E000A"></path>
                <path d="M36.269021,155.456856 L22.961797,183.423064 C16.187939,197.646565 21.278353,215.155494 35.226889,222.567741 C50.017147,230.420716 68.214375,224.290588 75.348971,209.345895 L87.493817,183.823726 C68.7394492,177.781743 51.339853,168.145822 36.269021,155.456856" id="Path" fill="#1A007F"></path>
                <path d="M246.539193,36.860904 C244.651331,36.4842817 242.727395,36.291964 240.803459,36.291964 C226.923062,36.291964 214.866397,46.1762955 212.148837,59.7787704 C209.343097,73.8019404 202.769649,86.8635216 193.711117,97.961859 L220.285483,153.894274 C244.815667,132.619122 262.932731,103.651259 269.426015,71.2377036 C272.592493,55.3714884 262.331501,39.9860676 246.539193,36.860904" id="Path" fill="#FF9396"></path>
                <path d="M144.169765,129.734356 C138.478121,131.096606 132.666231,131.817798 126.854341,131.817798 C122.325075,131.817798 117.635481,131.296937 112.945887,130.295282 C93.506117,126.168464 73.946101,114.148604 62.883469,99.5244408 C60.117811,95.8784166 57.873219,92.0721276 56.310021,88.1857062 C50.257639,73.2410136 33.222789,66.0290976 18.272203,72.0390276 C3.32161704,78.0890238 -3.89314296,95.1171588 2.11915704,110.061851 C8.97317904,127.04992 21.077943,142.635672 36.269021,155.456856 C51.3278284,168.145822 68.7113918,177.777736 87.453735,183.823726 C100.320057,187.950544 113.667363,190.234318 126.814259,190.234318 C141.404107,190.234318 155.793545,187.710147 169.501589,183.102534 L144.169765,129.734356 Z" id="Path" fill="#002DC8"></path>
                <path d="M234.314183,183.302865 L220.285483,153.814142 L193.711117,97.9217928 L193.671035,97.961859 C193.671035,97.961859 193.671035,97.9217928 193.711117,97.9217928 L155.072069,16.6675392 C150.23818,6.5107575 139.94913,0.00801324 128.698113,0 C117.435071,0 107.174079,6.4907244 102.324157,16.6675392 L62.923551,99.5244408 C73.986183,114.148604 93.546199,126.168464 112.985969,130.295282 L125.732045,103.531061 C126.934505,101.00689 130.541885,101.00689 131.744345,103.531061 L144.209847,129.734356 L144.290011,129.734356 L144.209847,129.734356 L169.581753,183.102534 L182.047255,209.305829 C186.877136,219.482644 197.190235,225.993401 208.461293,225.973414 C211.066623,225.973414 213.671953,225.612772 216.237201,224.891581 C233.833199,220.04357 242.170255,199.810139 234.314183,183.302865" id="Path" fill="#FF536A"></path>
            </g>
            <path d="M87.493817,183.823726 L112.945887,130.295282 C93.506117,126.168464 73.946101,114.148604 62.883469,99.5244408 L36.269021,155.456856 C51.059279,167.997577 68.815605,177.853862 87.493817,183.823726" id="Path" fill="#1A007F"></path>
            <path d="M193.711117,97.9217928 C180.924959,113.587677 163.168633,125.206875 144.169765,129.734356 L169.541671,183.102534 C188.059555,176.852207 205.374979,166.755524 220.325565,153.814142 L193.711117,97.9217928 Z" id="Path" fill="#4E000A"></path>
            <path d="M36.269021,155.456856 L22.961797,183.423064 C16.187939,197.646565 21.278353,215.155494 35.226889,222.567741 C50.017147,230.420716 68.214375,224.290588 75.348971,209.345895 L87.493817,183.823726 C68.7394492,177.781743 51.339853,168.145822 36.269021,155.456856" id="Path" fill="#1A007F"></path>
            <path d="M246.539193,36.860904 C244.651331,36.4842817 242.727395,36.291964 240.803459,36.291964 C226.923062,36.291964 214.866397,46.1762955 212.148837,59.7787704 C209.343097,73.8019404 202.769649,86.8635216 193.711117,97.961859 L220.285483,153.894274 C244.815667,132.619122 262.932731,103.651259 269.426015,71.2377036 C272.592493,55.3714884 262.331501,39.9860676 246.539193,36.860904" id="Path" fill="#FF9396"></path>
            <path d="M144.169765,129.734356 C138.478121,131.096606 132.666231,131.817798 126.854341,131.817798 C122.325075,131.817798 117.635481,131.296937 112.945887,130.295282 C93.506117,126.168464 73.946101,114.148604 62.883469,99.5244408 C60.117811,95.8784166 57.873219,92.0721276 56.310021,88.1857062 C50.257639,73.2410136 33.222789,66.0290976 18.272203,72.0390276 C3.32161704,78.0890238 -3.89314296,95.1171588 2.11915704,110.061851 C8.97317904,127.04992 21.077943,142.635672 36.269021,155.456856 C51.3278284,168.145822 68.7113918,177.777736 87.453735,183.823726 C100.320057,187.950544 113.667363,190.234318 126.814259,190.234318 C141.404107,190.234318 155.793545,187.710147 169.501589,183.102534 L144.169765,129.734356 Z" id="Path" fill="#002DC8"></path>
            <path d="M234.314183,183.302865 L220.285483,153.814142 L193.711117,97.9217928 L193.671035,97.961859 C193.671035,97.961859 193.671035,97.9217928 193.711117,97.9217928 L155.072069,16.6675392 C150.23818,6.5107575 139.94913,0.00801324 128.698113,-1.42108547e-14 C117.435071,-1.42108547e-14 107.174079,6.4907244 102.324157,16.6675392 L62.923551,99.5244408 C73.986183,114.148604 93.546199,126.168464 112.985969,130.295282 L125.732045,103.531061 C126.934505,101.00689 130.541885,101.00689 131.744345,103.531061 L144.209847,129.734356 L144.290011,129.734356 L144.209847,129.734356 L169.581753,183.102534 L182.047255,209.305829 C186.877136,219.482644 197.190235,225.993401 208.461293,225.973414 C211.066623,225.973414 213.671953,225.612772 216.237201,224.891581 C233.833199,220.04357 242.170255,199.810139 234.314183,183.302865" id="Path" fill="#FF536A"></path>
        </g>
    </g>
</svg>