<?xml version="1.0" encoding="UTF-8" standalone="no"?>
<!DOCTYPE svg PUBLIC "-//W3C//DTD SVG 1.1//EN" "http://www.w3.org/Graphics/SVG/1.1/DTD/svg11.dtd">
<!-- Created with Vectornator (http://vectornator.io/) -->
<svg height="504.0pt" stroke-miterlimit="10" style="fill-rule:nonzero;clip-rule:evenodd;stroke-linecap:round;stroke-linejoin:round;" version="1.1" viewBox="0 0 504 504" width="504.0pt" xml:space="preserve" xmlns="http://www.w3.org/2000/svg" xmlns:xlink="http://www.w3.org/1999/xlink">
<defs/>
<g id="Untitled">
<path d="M265.906 20C260.541 20.3517 256.858 21.9346 254.438 23.4375C242.001 17.8602 235.696 19.7538 209 29.3125C187.183 37.1244 63.6361 110.122 41.5938 127.125C30.2426 135.881 25.5508 144.089 23.6562 150.562C7.67169 164.032 7.12559 168.494 6.53125 203.219C6.10426 228.166 34.3909 380.34 43.6875 409C51.3261 432.549 64.2569 438.883 71 440.625C83.0898 461.743 89.3722 463.625 130.25 471.406C160.58 477.18 352.42 473.097 389.406 467.281C421.143 462.291 431.338 445.92 434.469 438.031C440.95 434.03 448.461 426.352 454 411.188C464.337 382.889 498.172 231.852 498.656 206.906C499.246 176.512 498.996 169.329 488.562 158.594C486.47 145.479 481.514 140.996 459.469 122.688C441.456 107.729 316.03 36.1718 290.406 25.2188C283.077 22.0859 276.933 20.5715 271.844 20.0938C269.666 19.8893 267.695 19.8828 265.906 20ZM253.219 39.625C264.059 62.7738 270.281 88.5418 270.281 115.812C270.281 143.088 264.062 168.848 253.219 192C242.375 168.848 236.156 143.088 236.156 115.812C236.156 88.5418 242.379 62.7738 253.219 39.625ZM466.906 164.531C469.245 164.608 471.548 164.925 473.875 165.094C456.237 183.568 434.526 198.672 409.156 208.469C383.787 218.265 357.585 221.657 332.156 219.812C349.796 201.335 371.502 186.266 396.875 176.469C419.928 167.567 443.68 163.766 466.906 164.531ZM45.3438 165.438C68.5699 164.672 92.3534 168.473 115.406 177.375C140.779 187.173 162.486 202.241 180.125 220.719C154.697 222.563 128.463 219.171 103.094 209.375C77.7243 199.579 56.0131 184.474 38.375 166C40.6971 165.832 43.0096 165.514 45.3438 165.438ZM254.094 197.312C254.094 253.385 327.5 222.844 327.5 222.844C258.534 254.529 308.188 312.75 308.188 312.75C262.267 266.778 195.156 319.844 195.156 319.844C251.525 263.144 187.969 223.562 187.969 223.562C254.073 255.479 253.607 197.641 254.094 197.312ZM313.188 317.062C337.172 325.738 359.748 339.523 378.969 358.812C398.188 378.1 411.886 400.745 420.531 424.812C396.547 416.137 374.002 402.352 354.781 383.062C335.557 363.77 321.832 341.137 313.188 317.062ZM192.344 323.406C183.699 347.48 169.974 370.114 150.75 389.406C131.529 408.696 108.984 422.481 85 431.156C93.6449 407.089 107.375 384.444 126.594 365.156C145.811 345.87 168.364 332.082 192.344 323.406Z" fill="#000000" fill-rule="nonzero" opacity="1" stroke="none"/>
</g>
</svg>
