<svg height="48pt" viewBox="0 0 48 48" width="48pt" xmlns="http://www.w3.org/2000/svg" xmlns:xlink="http://www.w3.org/1999/xlink"><linearGradient id="a" gradientTransform="matrix(18.001 0 0 28.001 28.03 15)" gradientUnits="userSpaceOnUse" x1=".87332" x2=".44278" y1=".026796" y2=".674103"><stop offset="0" stop-color="#d300dc"/><stop offset="1" stop-color="#8700ff"/></linearGradient><linearGradient id="b" gradientTransform="matrix(21.26 0 0 25.23 19.195 17.769)" gradientUnits="userSpaceOnUse" x1=".296574" x2=".737423" y1=".2668" y2=".954529"><stop offset="0" stop-color="#00c6ff"/><stop offset=".98695652174" stop-color="#0072ff"/></linearGradient><linearGradient id="c" gradientTransform="matrix(33.011 0 0 37.994 2.03 5)" gradientUnits="userSpaceOnUse" x1="0" x2="1" y1=".5" y2=".5"><stop offset="0" stop-color="#5433ff"/><stop offset=".51739130435" stop-color="#20bdff"/><stop offset=".98260869565" stop-color="#a5fecb"/></linearGradient><path d="m37.6 40.03c-.54 1.21-1.54 2.16-2.78 2.64-1.23.47-2.61.44-3.82-.1s-2.16-1.54-2.64-2.77c-.47-1.24-.44-2.62.1-3.83l8-18c.54-1.21 1.54-2.16 2.77-2.64 1.24-.47 2.62-.44 3.83.1s2.16 1.54 2.64 2.78c.47 1.23.44 2.61-.1 3.82z" fill="url(#a)"/><path d="m23.591 18.504c7.162 6.926.77-.981 2.119-.524 3.27 1.081.305-1.258 1.782.411 2.017 2.638 3.594 5.931 5.023 8.478l-.016.026 3.707 6.589c1.336 1.426 2.831.97 4.249.145l-2.846 6.402c-1.672 3.756-6.909 4.002-8.926.42l-8.93-15.875-.164-.256c-1.785-2.853 3.209-.617.811-2.787-.268-.238.562-.529.728-.936.672-1.647.578.83 1.994.533.295-.04-.323.006 0 0z" fill="url(#b)"/><path d="m19.636 39.955c-.221.516-.526.988-.909 1.389-.007.029-.025.049-.054.057-.208.244-.449.457-.718.634-.1.092-.213.167-.332.235-.178.113-.367.213-.563.3-.072.032-.144.062-.218.088-.052.024-.106.043-.159.065-.376.123-.762.208-1.152.251-.123.01-.246.018-.369.009-.262.022-.525.009-.784-.037-.171-.007-.34-.037-.504-.086-.267-.049-.527-.13-.775-.246-1.125-.441-2.101-1.31-2.667-2.583l-2.846-6.402c.013.008.026.015.039.023l-5.165-11.622c-.54-1.21-.57-2.59-.1-3.82.48-1.24 1.43-2.24 2.64-2.78s2.59-.57 3.82-.1c1.24.48 2.24 1.43 2.78 2.64l3.942 8.87c1.425-2.543 2.997-5.821 5.007-8.449 1.476-1.669 3.483-3.645 6.754-4.727 1.348-.456 2.461-.617 3.431-.601.324.005.631.03.926.07 1.417.296 2.648.657 3.32 2.305.166.406-.036.792-.304 1.029-2.398 2.17-4.44 5-6.225 7.853l-.164.256zm11.364-32.955c0-1.104.896-2 2-2s2 .896 2 2-.896 2-2 2-2-.896-2-2zm-6.166-1c-.658.001-1.356.187-2.06.562-2.628 1.401-3.924 3.826-3.76 7.041.041.812.169 1.684.284 1.937s.307.46.426.46c.12 0 .627-.44 1.128-.978.681-.732 1.271-1.158 2.342-1.691 2.861-1.423 3.122-1.585 3.809-2.357 1.296-1.456 1.329-2.889.095-4.061-.639-.608-1.418-.914-2.264-.913zm-9.605 7.001c-.14-.004-.281.007-.421.036-1.11.23-1.979 1.973-1.779 3.568.123.99.967 2.504 1.687 3.029.313.228.719.391.903.363.289-.045.352-.23.453-1.337.065-.707.306-1.767.534-2.357.499-1.287.516-1.705.096-2.453-.286-.508-.865-.83-1.473-.849z" fill="url(#c)" fill-rule="evenodd"/></svg>