<?xml version="1.0" encoding="UTF-8"?>
<svg width="148px" height="148px" viewBox="0 0 148 148" version="1.1" xmlns="http://www.w3.org/2000/svg" xmlns:xlink="http://www.w3.org/1999/xlink">
    <title>readwise</title>
    <g id="readwise" stroke="none" stroke-width="1" fill="none" fill-rule="evenodd">
        <g transform="translate(13.870000, 12.460000)" fill="#000000" fill-rule="nonzero" id="Combined-Shape">
            <path d="M57.24,0 C91.75,0 109.78,7.26 109.78,32.78 C109.78,52.09 100.39,61.31 81.48,64.49 L106.87,105.79 C111.35,113.24 115,115.71 122.47,116.6 L122.47,124.05 L85.63,124.05 L51.12,66.45 L42.5,66.45 L42.5,104.2 C42.5,114.31 45,115.71 55.62,116.6 L55.62,124.05 L0,124.05 L0,116.6 C10.62,115.71 13.12,114.29 13.12,104.2 L13.12,19.85 C13.12,9.58 10.95,8.34 0,7.45 L0,0 L57.24,0 Z M79.42,13.29 L42.04,54.58 C50.9058,47.208 77.197068,46.873932 78.7665649,46.8605227 L78.8317482,46.8600434 C80.16,46.57 81.07,45.39 81.01,44.05 C81.01,44.05 80.933612,43.621078 80.8071341,42.8629339 L80.7118931,42.2866925 C79.75432,36.4404 76.9588,17.8092 79.42,13.29 Z"></path>
        </g>
    </g>
</svg>