<?xml version="1.0" encoding="UTF-8"?>
<svg width="160px" height="160px" viewBox="0 0 160 160" version="1.1" xmlns="http://www.w3.org/2000/svg" xmlns:xlink="http://www.w3.org/1999/xlink">
    <title>droplr-icon</title>
    <g id="droplr-icon" stroke="none" stroke-width="1" fill="none" fill-rule="evenodd">
        <g id="droplr" transform="translate(16.000000, 0.000000)" fill="#000000" fill-rule="nonzero">
            <path d="M84.5714286,11.4285714 L84.5714286,6.85714286 C84.5714286,3.07004743 87.641476,0 91.4285714,0 L121.142857,0 C124.929953,0 128,3.07004743 128,6.85714286 L128,11.4285714 C128,53.7142857 98.2857143,75.4285714 64,75.4285714 C52.6387137,75.4285714 43.4285714,84.6387137 43.4285714,96 C43.4285714,107.361286 52.6387137,116.571429 64,116.571429 C75.3612863,116.571429 84.5714286,107.361286 84.5714286,96 L84.5714286,86.8571429 C84.5714286,81.8076823 88.6648251,77.7142857 93.7142857,77.7142857 L121.142857,77.7142857 C124.929953,77.7142857 128,80.7843331 128,84.5714286 L128,96 C128,131.346286 99.3462857,160 64,160 C28.6537143,160 0,131.346286 0,96 C0,60.6537143 28.6537143,32 64,32 C75.3612863,32 84.5714286,22.7898577 84.5714286,11.4285714 Z" id="Path"></path>
        </g>
    </g>
</svg>