<svg height="255" viewBox="0 0 255 255" width="255" xmlns="http://www.w3.org/2000/svg"><g fill="none" fill-rule="evenodd" transform="translate(.5)"><circle cx="127.5" cy="127.5" r="121.5" stroke="#000" stroke-width="12"/><g fill="#000"><path d="m81.3515625 69.0732422c0-2.2119141 45.4716795-30.7958985 50.7666015-34.5097656 5.294922-3.7138672-3.115234 18.8945312-1.352539 20.4716796 1.762695 1.5771485 26.588867-.3867187 45.114258 17.6035157 8.051075 7.8184976 20.026483 22.0952695 22.829101 40.0283201 1.496568 9.576053 1.12427 32.475714-1.96289 33.841797s-1.97137-9.244993-5.958985-16.257812c-2.347774-4.128914-6.010362-12.965985-9.297851-17.583985-5.899744-8.287484-11.786944-12.080585-15.194336-15.3095701-12.7964-12.1263939-34.084961-13.9478249-35.529297-13.0371094s6.536133 22.7158205 2.947266 20.3496095c-3.588868-2.366211-52.3613285-33.3847658-52.3613285-35.5966798z"/><path d="m56.2109375 144.350586c0-2.211914 45.4716795-30.795899 50.7666015-34.509766s-3.115234 18.894532-1.352539 20.47168 26.588867-.386719 45.114258 17.603516c8.051075 7.818497 20.026483 22.095269 22.829101 40.02832 1.496568 9.576052 1.12427 32.475714-1.96289 33.841797s-1.97137-9.244994-5.958985-16.257813c-2.347774-4.128913-6.010362-12.965985-9.297851-17.583984-5.899744-8.287484-11.786944-12.080586-15.194336-15.30957-12.7964-12.126394-34.084961-13.947825-35.529297-13.03711-1.444336.910716 6.536133 22.715821 2.947266 20.34961-3.588868-2.366211-52.3613285-33.384766-52.3613285-35.59668z" transform="matrix(-1 0 0 -1 230.630094 331.335432)"/></g></g></svg>