<svg height="505" viewBox="0 0 505 505" width="505" xmlns="http://www.w3.org/2000/svg"><path d="m294.36259 372.42158h-86.412c-23.751 0-27.366-25.472-22.939-35.697 2.111-4.852 6.891-11.875 11.415-17.613 17.199 9.496 36.527 14.467 56.173 14.447 30.949-.036 60.62-12.347 82.502-34.232 21.884-21.885 34.191-51.557 34.224-82.506.007-16.359-3.433-32.537-10.096-47.478-6.663-14.942-16.399-28.311-28.575-39.238l2.681-2.717c3.136-3.19 6.952-5.63 11.164-7.138 4.211-1.508 8.708-2.045 13.157-1.571l14.046 1.492v-57.2166h-24.551c-13.307.0069-26.307 3.9927-37.331 11.4457-11.023 7.4529-19.566 18.0318-24.531 30.3779-10.638-3.115-21.666-4.696-32.75-4.694-30.95.035-60.622 12.346-82.508 34.23-21.884 21.885-34.195 51.557-34.23 82.507-.031 24.884 7.929 49.12 22.707 69.14l-6.914 5.325c-1.032.789-2.208 1.783-3.42 2.924-23.653 22.051-34.498 50.945-28.3 83.076 3.397 17.601 18.341 35.881 33.552 45.573 10.824 6.805 23.337 10.444 36.122 10.504l96.881-3.93c5.381-.013 10.677 1.337 15.396 3.922s8.707 6.323 11.593 10.864l12.663 22.853 60.055-20.075-10.273-22.367c-7.168-15.587-18.657-28.79-33.102-38.043-14.446-9.254-31.243-14.169-48.399-14.165zm-41.763-211.435c14.79.026 28.968 5.913 39.426 16.372 10.459 10.458 16.345 24.636 16.371 39.426-.026 14.79-5.912 28.967-16.371 39.426-10.458 10.459-24.636 16.345-39.426 16.371-14.79-.026-28.967-5.912-39.426-16.371s-16.346-24.636-16.372-39.426c.026-14.79 5.913-28.968 16.372-39.426 10.459-10.459 24.636-16.346 39.426-16.372z" fill="#191919"/></svg>