<?xml version="1.0" encoding="utf-8"?>
<!-- Generator: Adobe Illustrator 24.1.1, SVG Export Plug-In . SVG Version: 6.00 Build 0)  -->
<svg version="1.1" id="Layer_1" xmlns="http://www.w3.org/2000/svg" xmlns:xlink="http://www.w3.org/1999/xlink" x="0px" y="0px"
	 viewBox="0 0 512 512" style="enable-background:new 0 0 512 512;" xml:space="preserve">
<g>
	<path d="M278.5,453.6c-28.7,0.4-49.6-8.7-50.9-33.8c-0.5-9.4-0.3-19.4,0.1-25.4c2.9-36.7,28.4-63,53.9-68.1
		c31.7-6.3,52.4,8.1,52.4,49.2c0,27.8-7.7,77.2-55.2,78.1L278.5,453.6L278.5,453.6z M254.3,0C113.5,0,0,113,0,260.8
		c0,76.7,41,150.7,98.6,195.2c11.2,8.5,24.3,7.8,32,0.4c6.3-6.1,5.7-21-6.1-31.5C78.4,384.7,46.6,323.3,46.6,262
		c0-109.8,97.7-202.5,207.7-202.5c134,0,205.6,108.9,205.6,201.2c0,56.5-27.5,124.6-77.3,167.9c0.3,0,10.5-20.1,10.5-59.3
		c0-66.8-42.2-103.2-91.3-103.2c-35.4,0-56.8,12.7-71.2,24.6c0-27.2,1-77.9,1-77.9c0-33.6-11.5-60.4-52.7-61.1
		c-23.7-0.2-41.2,10.6-52.1,35.2c-3.8,9.3-2.6,19.6,5.4,24c6.4,3.8,17.2,1,22.3-6.1c3.5-4.4,5.4-5.4,8.6-5.1
		c5.2,0.7,5.5,8.7,5.5,14.1c0.2,4.1,4.1,61.9,1.8,210.4C170.3,465,202.5,512,279.5,512c33.2,0,58.7-9.2,95.8-30.3
		c56.5-32,136.7-102.8,136.7-222.9C511,107.7,389.7,0,254.6,0L254.3,0z"/>
</g>
</svg>
