<svg enable-background="new 0 0 512 512" viewBox="0 0 512 512" xmlns="http://www.w3.org/2000/svg"><path d="m278.5 453.6c-28.7.4-49.6-8.7-50.9-33.8-.5-9.4-.3-19.4.1-25.4 2.9-36.7 28.4-63 53.9-68.1 31.7-6.3 52.4 8.1 52.4 49.2 0 27.8-7.7 77.2-55.2 78.1zm-24.2-453.6c-140.8 0-254.3 113-254.3 260.8 0 76.7 41 150.7 98.6 195.2 11.2 8.5 24.3 7.8 32 .4 6.3-6.1 5.7-21-6.1-31.5-46.1-40.2-77.9-101.6-77.9-162.9 0-109.8 97.7-202.5 207.7-202.5 134 0 205.6 108.9 205.6 201.2 0 56.5-27.5 124.6-77.3 167.9.3 0 10.5-20.1 10.5-59.3 0-66.8-42.2-103.2-91.3-103.2-35.4 0-56.8 12.7-71.2 24.6 0-27.2 1-77.9 1-77.9 0-33.6-11.5-60.4-52.7-61.1-23.7-.2-41.2 10.6-52.1 35.2-3.8 9.3-2.6 19.6 5.4 24 6.4 3.8 17.2 1 22.3-6.1 3.5-4.4 5.4-5.4 8.6-5.1 5.2.7 5.5 8.7 5.5 14.1.2 4.1 4.1 61.9 1.8 210.4-.1 40.8 32.1 87.8 109.1 87.8 33.2 0 58.7-9.2 95.8-30.3 56.5-32 136.7-102.8 136.7-222.9-1-151.1-122.3-258.8-257.4-258.8z"/></svg>