<?xml version="1.0" standalone="no"?><!DOCTYPE svg PUBLIC "-//W3C//DTD SVG 1.1//EN" "http://www.w3.org/Graphics/SVG/1.1/DTD/svg11.dtd"><svg t="1751681243654" class="icon" viewBox="0 0 1024 1024" version="1.1" xmlns="http://www.w3.org/2000/svg" p-id="4007" xmlns:xlink="http://www.w3.org/1999/xlink" width="200" height="200"><path d="M976 112v800H48V112zM211.01037 544.896c18.176 1.024 31.872 5.12 41.088 12.35437a55.04 55.04 0 0 1 18.87763 31.35526c3.39437 13.63437 5.05837 36.29037 5.05837 67.968 0 46.724741 3.26163 76.416 9.78963 89.344 6.528 12.86637 16.896 24.192 31.17037 33.98637 14.26963 9.78963 41.339259 14.72 81.34163 14.72h15.68237v-70.97837c-21.31437 0-34.56-1.08563-39.61837-3.13363a44.392296 44.392296 0 0 1-14.336-9.92237c-4.608-4.603259-6.84563-14.52563-6.84563-30.01363 0-64.896-4.740741-107.20237-14.08-126.90963a96 96 0 0 0-41.41037-44.35437c23.68-14.26963 38.97837-32.512 45.63437-54.784 6.779259-22.272 10.17363-61.056 10.17363-116.224 0-17.98637 3.39437-29.696 10.368-35.01037 6.912-5.376 23.68-7.99763 50.176-7.99763V224h-15.744c-26.17363 0-46.848 2.37037-62.208 6.97363-15.36 4.67437-27.52 11.776-36.66963 21.38074-9.481481 10.382222-15.909926 23.182222-18.56 36.98726-3.2 14.980741-4.93037 39.36237-4.93037 72.96 0 31.93837-1.72563 54.784-5.30963 68.608a54.4 54.4 0 0 1-18.944 31.17037c-9.15437 6.97363-22.660741 10.81363-40.704 11.58163v71.30074z m583.93126 0V473.728c-18.176-0.768-31.872-4.80237-41.14963-12.032a55.172741 55.172741 0 0 1-18.816-31.488c-3.39437-13.75763-5.05837-36.28563-5.05837-67.84 0-40.704-3.00563-69.57037-9.14963-86.46163a68.79763 68.79763 0 0 0-35.38963-38.59437c-17.34637-8.832-43.33037-13.25037-77.70074-13.25037h-15.744v71.30074c25.66637 0 42.24 2.427259 49.536 7.48563 7.300741 5.12 10.94637 16.896 10.94637 35.51763 0 53.636741 3.2 91.97037 9.66637 114.88237 6.4 22.97363 21.82163 41.66637 46.14163 56.13037-22.33363 12.86163-37.12 30.39763-44.48237 52.66963-7.35763 22.272-11.003259 61.75763-11.00326 118.58963 0 17.408-3.90637 28.928-11.71437 34.56-7.808 5.69837-24.192 8.51437-49.152 8.51437v70.912h15.744c37.632 0 64.128-4.48 79.42637-13.63437 15.36-9.088 26.368-20.608 32.95763-34.432 6.656-13.824 9.92237-43.83763 9.92237-89.91763 0-31.872 1.792-54.784 5.376-68.608a54.376296 54.376296 0 0 1 18.944-31.16563c9.14963-6.916741 22.656-10.884741 40.704-11.84237z" p-id="4008" fill="#8a8a8a"></path></svg>