<svg height="41" viewBox="0 0 40 41" width="40" xmlns="http://www.w3.org/2000/svg"><g fill="none" fill-rule="evenodd"><path d="m11.8355888 21.442008h-5.80424852c-1.59534216 0-1.8381598-1.7648724-1.54080055-2.4733296.14179476-.3361793.46286484-.8227803.76673954-1.2203477 1.15524777.6579471 2.45349934 1.0023716 3.77311081 1.0009858 2.07882802-.0024943 4.07181342-.8554836 5.54161582-2.3718244 1.4699368-1.5163408 2.2965915-3.5722176 2.2988081-5.7165736.0004702-1.13346214-.2305928-2.25438337-.678143-3.28959688-.4475502-1.0352828-1.1015122-1.96157753-1.9193677-2.71867397l.1800814-.18825214c.2106434-.22102477.4669621-.39008447.74988-.49456891.2828506-.10448443.5849117-.14169142.8837487-.1088495l.9434624.10337585v-3.96435295h-1.6490777c-.8938242.00047808-1.7670273.27664125-2.5075036.79303549-.7404091.51638731-1.3142379 1.24936504-1.6477343 2.10478633-.7145489-.21582826-1.45529385-.32537063-2.19980029-.32523206-2.07889519.00242504-4.07194779.85541437-5.54201888 2.37168587-1.46993675 1.51634078-2.29686013 3.57221759-2.29921106 5.71664287-.00208226 1.7241318.53258675 3.4033658 1.52521722 4.7904867l-.46440974.368952c-.06931889.0546673-.14831019.1235383-.22971959.2025945-1.58875955 1.5278424-2.31721249 3.5298141-1.90089609 5.7560671.2281747 1.2195163 1.2319553 2.4860783 2.25367016 3.1576056.72704237.4714964 1.56753399.7236309 2.4262957.7277881l6.50744577-.2722969c.3614389-.0009008.7171684.0926364 1.0341412.2717426.3169727.1791063.5848446.4381002.7786957.7527314l.850567 1.5834104 4.0338627-1.3909317-.690032-1.5497371c-.4814708-1.0799727-1.2531809-1.9947658-2.2234439-2.6358762-.9703302-.6411797-2.0985758-.9817242-3.2509353-.981447zm-2.80519872-14.64964657c.99343652.00180146 1.94576532.40969263 2.64822362 1.13436287.7025255.72460096 1.0978851 1.70694867 1.0996315 2.7316999-.0017464 1.0247512-.397106 2.0070296-1.0996315 2.7316999-.7024583.7246702-1.6547871 1.1324921-2.64822362 1.1342935-.99343651-.0018014-1.94569813-.4096233-2.64822365-1.1342935-.70252551-.7246703-1.0979522-1.7069487-1.09969861-2.7316999.00174641-1.02475123.3971731-2.00709894 1.09969861-2.7316999.70252552-.72467024 1.65478714-1.13256141 2.64822365-1.13436287z" fill="#000" fill-rule="nonzero" transform="translate(0 6)"/><g stroke="#000" stroke-linecap="round" stroke-linejoin="round" stroke-width="1.5" transform="translate(19 10)"><path d="m3 3.828h2.7m3.3 0h-1.5m-1.8 0h1.8m-1.8 0v-.828m1.8.828c-.316 1.131-.98 2.201-1.736 3.141m-1.928 2.031c.69171358-.6283329 1.3361292-1.30684105 1.928-2.03m0 0c-.385-.453-.925-1.184-1.08-1.515m1.08 1.514 1.157 1.203m4.579 8.828.833-2m4.167 2-.833-2m-3.334 0 1.667-4 1.667 4m-3.334 0h3.334"/><path d="m12 8v-2c0-2.828 0-4.243-.879-5.121-.878-.879-2.293-.879-5.121-.879s-4.243 0-5.121.879c-.879.878-.879 2.293-.879 5.121s0 4.243.879 5.121c.878.879 2.293.879 5.121.879h2"/><path d="m8 14c0-2.828 0-4.243.879-5.121.878-.879 2.293-.879 5.121-.879s4.243 0 5.121.879c.879.878.879 2.293.879 5.121s0 4.243-.879 5.121c-.878.879-2.293.879-5.121.879s-4.243 0-5.121-.879c-.879-.878-.879-2.293-.879-5.121"/></g></g></svg>