<?xml version="1.0" encoding="iso-8859-1"?>
<!-- Generator: Adobe Illustrator 19.0.0, SVG Export Plug-In . SVG Version: 6.00 Build 0)  -->
<svg version="1.1" id="Layer_1" xmlns="http://www.w3.org/2000/svg" xmlns:xlink="http://www.w3.org/1999/xlink" x="0px" y="0px"
	 viewBox="0 0 300 300" style="enable-background:new 0 0 300 300;" xml:space="preserve">
<g id="XMLID_338_">
	<path id="XMLID_340_" d="M269.973,54.436c0-19.195-28.53-21.38-28.53-21.38l-66.983-4.304c0,0-1.391-18.531-14.961-24.952
		c-7.609-3.641-31.238-4.038-53.413-3.706c-5.097,0.065-9.2,4.234-9.2,9.332v42.625c0,6.95-5.625,12.576-12.576,12.576H43.865
		c-10.588,0-18.863,4.105-18.863,12.842c0,8.737,12.443,102.463,29.651,119.604c9.929,9.93,70.759,17.608,83.601,17.608
		c12.841,0,8.537-38.128,12.113-38.128c3.572,0,7.479,21.912,27.667,27.009c20.186,5.095,47.126,4.235,48.517,18.863
		c1.854,19.261,3.574,44.216-8.936,45.936l-28.199,1.19c-8.338,0-7.347-22.902-5.625-22.902c2.848,0,5.229-0.064,7.148-0.064
		c3.179-0.066,5.76-2.646,5.892-5.826l0.531-11.914c0.131-3.44-2.582-6.353-6.023-6.353c-12.313-0.2-38.459,2.249-39.846,25.417
		c-1.723,27.8,2.979,40.841,6.419,43.685c3.441,2.848,9.4,8.407,63.61,8.407C298.037,300,269.973,73.631,269.973,54.436
		L269.973,54.436z M232.838,146.77c-1.918,1.787-10.193-5.229-16.744-5.229c-6.555,0-12.18,5.36-13.901,3.311
		c-1.656-1.988,1.522-18.271,13.901-18.271C228.469,126.581,234.758,144.982,232.838,146.77L232.838,146.77z M232.838,146.77"/>
	<path id="XMLID_351_" d="M73.586,7.838L40.094,42.256c-2.648,2.713-0.729,7.213,3.043,7.213h33.494
		c2.384,0,4.237-1.918,4.237-4.234V10.816C80.93,6.977,76.299,5.057,73.586,7.838L73.586,7.838z M73.586,7.838"/>
</g>
<g>
</g>
<g>
</g>
<g>
</g>
<g>
</g>
<g>
</g>
<g>
</g>
<g>
</g>
<g>
</g>
<g>
</g>
<g>
</g>
<g>
</g>
<g>
</g>
<g>
</g>
<g>
</g>
<g>
</g>
</svg>
